<svg xmlns="http://www.w3.org/2000/svg" width="103.281" height="32.78" viewBox="0 0 103.281 32.78">
  <g id="DELL_tm_" data-name="DELL (tm)" transform="translate(0 0)" opacity="0.34">
    <path id="D" d="M66.45,181.956v29.612H80.617c6.23,0,14.208-3.969,14.208-14.823,0-11.869-9.274-14.789-17.748-14.789ZM76.918,191.1h1.825a5.578,5.578,0,0,1,5.338,5.787v.007c-.038,3.319-2.213,5.78-5.075,5.78H76.918Z" transform="translate(-66.45 -180.165)" fill="#1e1b4e" fill-rule="evenodd"/>
    <path id="L1" d="M306.272,181.956V211.57H325.88v-9.363h-9.234v-20.25Z" transform="translate(-244.349 -180.165)" fill="#1e1b4e" fill-rule="evenodd"/>
    <path id="O" d="M170.387,181.3,155.9,190.437l-2.523-1.7h.006L168.2,179.3l.028.019-6.775-4.306-25.8,16.411L161.585,207.8,187.21,191.47l-7.421-4.531-14.772,9.307-2.482-1.691,14.357-9.121Z" transform="translate(-117.782 -175.018)" fill="#1e1b4e" fill-rule="evenodd"/>
    <path id="L2" d="M389.437,181.946v29.582h19.608V202.2h-9.234V181.946Z" transform="translate(-306.041 -180.158)" fill="#1e1b4e" fill-rule="evenodd"/>
    <path id="T" d="M449.551,181.764h1.743v.415h-.641v1.875h-.462v-1.875h-.641Z" transform="translate(-350.633 -180.023)" fill="#1e1b4e" fill-rule="evenodd"/>
    <path id="M" d="M458.174,183.787l-.559-1.384v1.634h-.43v-2.268h.708l.488,1.38.488-1.38h.708v2.268h-.43V182.4l-.559,1.384Z" transform="translate(-356.296 -180.026)" fill="#1e1b4e" fill-rule="evenodd"/>
  </g>
</svg>
