<svg xmlns="http://www.w3.org/2000/svg" width="171.215" height="32.009" viewBox="0 0 171.215 32.009">
  <g id="deloitte" transform="translate(0.001 0)" opacity="0.34">
    <g id="g3359" transform="translate(-0.001 0)">
      <g id="g3371" transform="translate(0)">
        <path id="path3356" d="M16602.342,5276.637a4.537,4.537,0,1,1,4.537,4.536,4.539,4.539,0,0,1-4.537-4.536" transform="translate(-16440.201 -5249.164)" fill="#1e1b4e"/>
        <path id="path3360" d="M15780.844,5169.446q0-4.311-1.666-6.4a6.093,6.093,0,0,0-5.062-2.081h-2.408v17.575h1.843q3.772,0,5.533-2.242t1.761-6.856m8.593-.3q0,7.854-4.224,12.1t-11.873,4.25h-9.912v-31.377h10.6q7.378,0,11.393,3.863t4.013,11.161" transform="translate(-15763.428 -5153.99)" fill="#1e1b4e"/>
        <path id="path3362" d="M16040.061,5184.947h7.889V5153.44h-7.889Z" transform="translate(-15986.595 -5153.439)" fill="#1e1b4e"/>
        <path id="path3366" d="M16104.78,5205.294a10.609,10.609,0,0,0,.786,4.594,2.725,2.725,0,0,0,2.643,1.581,2.652,2.652,0,0,0,2.593-1.581,11.008,11.008,0,0,0,.755-4.594,10.441,10.441,0,0,0-.765-4.523,3,3,0,0,0-5.226-.013,10.192,10.192,0,0,0-.787,4.536m14.8,0q0,5.74-3.016,8.952t-8.44,3.213a10.8,10.8,0,0,1-8.28-3.285q-3.078-3.285-3.076-8.88,0-5.724,3.015-8.9t8.464-3.17a11.82,11.82,0,0,1,5.949,1.468,9.9,9.9,0,0,1,3.984,4.2,13.858,13.858,0,0,1,1.4,6.394" transform="translate(-16032.346 -5185.538)" fill="#1e1b4e"/>
        <path id="path3370" d="M16231.038,5218.773h7.888v-23.4h-7.888Z" transform="translate(-16140.662 -5187.265)" fill="#1e1b4e"/>
        <path id="path3372" d="M16231.038,5158.709h7.888v-5.274h-7.888Z" transform="translate(-16140.662 -5153.435)" fill="#1e1b4e"/>
        <path id="path3376" d="M16300.889,5182.1a11.5,11.5,0,0,0,3.813-.808v5.889a15.25,15.25,0,0,1-3.036,1,16.71,16.71,0,0,1-3.379.3q-3.971,0-5.731-2t-1.751-6.122v-9.648h-2.764v-6.05h2.764v-5.977l7.948-1.383v7.36h5.032v6.05h-5.032v9.109q0,2.273,2.136,2.273" transform="translate(-16186.647 -5156.556)" fill="#1e1b4e"/>
        <path id="path3380" d="M16395.34,5182.1a11.476,11.476,0,0,0,3.813-.808v5.889a15.263,15.263,0,0,1-3.035,1,16.71,16.71,0,0,1-3.381.3q-3.97,0-5.729-2t-1.752-6.122v-9.648h-2.765v-6.05h2.765V5158.6l7.947-1.292v7.36h5.035v6.05h-5.035v9.109q0,2.273,2.137,2.273" transform="translate(-16262.843 -5156.556)" fill="#1e1b4e"/>
        <path id="path3384" d="M16486.289,5202.447a4.272,4.272,0,0,1,1.1-2.82,3.246,3.246,0,0,1,2.33-.9,3.05,3.05,0,0,1,2.412,1.013,4.062,4.062,0,0,1,.936,2.7Zm11.121-6.455q-2.81-2.758-7.975-2.759-5.426,0-8.354,3.171t-2.926,9.1q0,5.741,3.158,8.851t8.867,3.11a25.866,25.866,0,0,0,4.719-.373,13.658,13.658,0,0,0,3.809-1.33l-1.211-5.274a15.56,15.56,0,0,1-6.371,1.235,5.4,5.4,0,0,1-3.6-1.115,4.056,4.056,0,0,1-1.4-3.079h14.1v-3.594q0-5.186-2.812-7.942" transform="translate(-16340.018 -5185.542)" fill="#1e1b4e"/>
        <path id="path3388" d="M15918.243,5202.447a4.273,4.273,0,0,1,1.1-2.82,3.238,3.238,0,0,1,2.33-.9,3.051,3.051,0,0,1,2.41,1.013,4.079,4.079,0,0,1,.938,2.7Zm11.124-6.455q-2.814-2.758-7.978-2.759-5.427,0-8.35,3.171t-2.929,9.1q0,5.741,3.161,8.851t8.864,3.11a25.9,25.9,0,0,0,4.72-.373,13.686,13.686,0,0,0,3.81-1.33l-1.213-5.274a15.57,15.57,0,0,1-6.369,1.235,5.4,5.4,0,0,1-3.6-1.115,4.044,4.044,0,0,1-1.4-3.079h14.1v-3.594q0-5.186-2.812-7.942" transform="translate(-15881.761 -5185.542)" fill="#1e1b4e"/>
      </g>
    </g>
  </g>
</svg>
