<svg xmlns="http://www.w3.org/2000/svg" width="152.138" height="25.643" viewBox="0 0 152.138 25.643">
  <path id="Nokia" d="M7.325,25.327H0V.415H12.669L27.2,19.013V.415H34.53V25.327H22.117L7.325,6.411V25.327m62.253-7.7c0,3.463-.612,4.657-1.626,5.8-1.554,1.7-3.815,2.217-8.172,2.217H47.273c-4.357,0-6.622-.513-8.174-2.217-1.014-1.145-1.626-2.339-1.626-5.8V8.02c0-3.461.612-4.654,1.626-5.8C40.653.513,42.916,0,47.273,0H59.781c4.357,0,6.618.513,8.172,2.219,1.014,1.147,1.626,2.339,1.626,5.8v9.6M59.473,19.331c1.674,0,2.263-.1,2.664-.464.375-.34.54-.78.54-2.244V9.02c0-1.464-.165-1.9-.54-2.242-.4-.367-.991-.464-2.664-.464H47.579c-1.674,0-2.263.1-2.662.464-.377.342-.542.778-.542,2.242v7.6c0,1.464.165,1.9.542,2.244.4.365.989.464,2.662.464H59.473M80.224.415V25.327H72.57V.415h7.654m12.932,0h10.106L89.623,12.066l15.383,13.261H94.193L80.224,12.335,93.156.415m13.261,0h7.656V25.327h-7.656m36.842,0-2.265-4.34H126.182l-2.238,4.338h-8.457L129.055.415h9.516l13.567,24.913h-8.879m-14.417-9.75h9.518l-4.76-9.02-4.758,9.02" fill="#1e1b4e" opacity="0.34"/>
</svg>
