<svg xmlns="http://www.w3.org/2000/svg" width="159.614" height="20.009" viewBox="0 0 159.614 20.009">
  <g id="oracle" transform="translate(0 0)" opacity="0.34">
    <path id="Path_828" data-name="Path 828" d="M171.046,15.006c.161,0,.322,0,.414-.161a.671.671,0,0,0,.046-.207.367.367,0,0,0-.184-.322,1.287,1.287,0,0,0-.482-.046h-.115v.712h.322Zm-.207-1.126a1.478,1.478,0,0,1,.643.069.7.7,0,0,1,.505.689.889.889,0,0,1-.023.207.663.663,0,0,1-.322.436.59.59,0,0,1-.115.046l.574,1.057h-.551l-.505-.965h-.322v.965h-.505v-2.5h.62Zm.207,3.538a2.228,2.228,0,1,0-2.205-2.228A2.23,2.23,0,0,0,171.046,17.419ZM169.3,15.19a1.757,1.757,0,1,1,1.746,1.746A1.765,1.765,0,0,1,169.3,15.19ZM153.816,29.364A6.4,6.4,0,0,1,147.66,24.7h16.265l2.251-3.492H147.637a6.415,6.415,0,0,1,6.157-4.686H165l2.228-3.492H153.541a9.9,9.9,0,1,0,0,19.8H165.3l2.228-3.492H153.793ZM107.2,32.856a9.9,9.9,0,1,1,0-19.8H120.9l-2.251,3.492H107.435a6.409,6.409,0,1,0,0,12.819h13.738l-2.251,3.492H107.159ZM34.841,29.364a6.409,6.409,0,1,0,0-12.819h-11a6.409,6.409,0,1,0,0,12.819ZM23.584,32.856a9.9,9.9,0,1,1,0-19.8H35.094a9.9,9.9,0,1,1,0,19.8Zm40.11-6.409a6.708,6.708,0,1,0,0-13.416H47.016V32.856H50.83V16.523H63.442a3.2,3.2,0,0,1,0,6.409H52.691l11.348,9.924h5.536l-7.65-6.409h1.723Zm63.037,2.918V13.054h-3.79V30.972a1.84,1.84,0,0,0,.551,1.332,2.084,2.084,0,0,0,1.4.574h17.39l2.251-3.492H126.755ZM80.1,25.873H90.274L84.9,17.212,75.02,32.879H70.54L82.532,14.088a2.9,2.9,0,0,1,4.686-.046L99.256,32.879h-4.5L92.64,29.387H82.348L80.1,25.9Z" transform="translate(-13.66 -12.87)" fill="#1e1b4e"/>
  </g>
</svg>
