<svg xmlns="http://www.w3.org/2000/svg" width="24.5" height="24.5" viewBox="0 0 24.5 24.5">
  <path id="trust" d="M21.875,26.75H2.625A2.625,2.625,0,0,1,0,24.125V4.875A2.625,2.625,0,0,1,2.625,2.25h19.25A2.625,2.625,0,0,1,24.5,4.875v19.25A2.625,2.625,0,0,1,21.875,26.75ZM10.681,21.387,20.744,11.325a.875.875,0,0,0,0-1.237L19.506,8.85a.875.875,0,0,0-1.237,0l-8.206,8.206L6.231,13.225a.875.875,0,0,0-1.237,0L3.756,14.462a.875.875,0,0,0,0,1.237l5.688,5.688A.875.875,0,0,0,10.681,21.387Z" transform="translate(0 -2.25)" fill="#fff"/>
</svg>
