<svg xmlns="http://www.w3.org/2000/svg" width="31.213" height="31.24" viewBox="0 0 31.213 31.24">
  <g id="advanced_skill" data-name="advanced skill" transform="translate(0 0)">
    <g id="Group_4044" data-name="Group 4044" transform="translate(10.876 11.044)">
      <g id="Group_4043" data-name="Group 4043">
        <path id="Path_2379" data-name="Path 2379" d="M.221,184.661H8.092l3.4-3.386a.859.859,0,0,1,.641-.275h7.5a.952.952,0,0,1,.787.439.933.933,0,0,1,.037.879l-1.629,3.258,1.629,3.258a.933.933,0,0,1-.037.879.953.953,0,0,1-.787.439h-7.5a.858.858,0,0,1-.641-.275l-3.4-3.386H.221c.018-.293.018-.6.018-.915S.24,184.954.221,184.661Z" transform="translate(-0.221 -181)" fill="#fff"/>
      </g>
    </g>
    <g id="Group_4046" data-name="Group 4046" transform="translate(0 0)">
      <g id="Group_4045" data-name="Group 4045">
        <path id="Path_2380" data-name="Path 2380" d="M254.725,0c5.452,0,7.586,7.388,8.032,12.874h-3.615c-.241-3.253-1.135-9.152-4.417-9.152-3.342,0-4.528,6.412-4.528,11.9,0,3.863.7,11.893,4.528,11.893,2.792,0,4.076-4.477,4.424-9.152h3.609c-.551,6.592-3.115,12.874-8.033,12.874-5.6,0-8.149-8.127-8.149-15.621C246.576,8.452,248.933,0,254.725,0Z" transform="translate(-246.576)" fill="#fff"/>
      </g>
    </g>
    <g id="Group_4048" data-name="Group 4048" transform="translate(5.403 5.553)">
      <g id="Group_4047" data-name="Group 4047">
        <path id="Path_2381" data-name="Path 2381" d="M336.275,91c1.428,0,2.6,4.009,2.727,9.152H337.19V97.407a.915.915,0,1,0-1.83,0v7.322a.915.915,0,1,0,1.83,0v-2.746H339c-.128,5.144-1.3,9.152-2.727,9.152-1.519,0-2.746-4.5-2.746-10.068S334.755,91,336.275,91Z" transform="translate(-333.529 -91)" fill="#fff"/>
      </g>
    </g>
  </g>
</svg>
