<svg xmlns="http://www.w3.org/2000/svg" width="19.272" height="19.305" viewBox="0 0 19.272 19.305">
  <path id="call" d="M13.8,4.787a4.109,4.109,0,0,1,3.246,3.246M13.8,1.5a7.4,7.4,0,0,1,6.533,6.525m-.822,6.558v2.465a1.644,1.644,0,0,1-1.792,1.644,16.264,16.264,0,0,1-7.092-2.523A16.025,16.025,0,0,1,5.7,11.238,16.263,16.263,0,0,1,3.174,4.113,1.644,1.644,0,0,1,4.81,2.322H7.275A1.644,1.644,0,0,1,8.919,3.735a10.552,10.552,0,0,0,.575,2.309,1.644,1.644,0,0,1-.37,1.734L8.081,8.822a13.149,13.149,0,0,0,4.931,4.931l1.044-1.044a1.644,1.644,0,0,1,1.734-.37,10.552,10.552,0,0,0,2.309.575A1.644,1.644,0,0,1,19.512,14.583Z" transform="translate(-2.167 -0.396)" fill="none" stroke="#eb4a54" stroke-linecap="round" stroke-linejoin="round" stroke-width="2"/>
</svg>
