<svg id="Customer_Delight_" data-name="Customer Delight " xmlns="http://www.w3.org/2000/svg" width="68.113" height="65.843" viewBox="0 0 68.113 65.843">
  <path id="Path_1858" data-name="Path 1858" d="M71.572,88H10.27A2.271,2.271,0,0,0,8,90.27v13.623a2.271,2.271,0,0,0,2.27,2.27h61.3a2.271,2.271,0,0,0,2.27-2.27V90.27A2.271,2.271,0,0,0,71.572,88Zm0,0" transform="translate(-6.865 -75.513)" fill="#2ad490"/>
  <path id="Path_1859" data-name="Path 1859" d="M178.217,290.11s10.217-5.676,10.217-12.487a5.657,5.657,0,0,0-10.217-3.375A5.658,5.658,0,0,0,168,277.623c0,2.79,1.712,5.393,3.73,7.493a31.38,31.38,0,0,0,6.486,4.995Zm0,0" transform="translate(-144.16 -233.349)" fill="#eb4a54"/>
  <g id="Group_2653" data-name="Group 2653" transform="translate(0)">
    <path id="Path_1860" data-name="Path 1860" d="M64.708,11.352H49.92a5.62,5.62,0,0,0,1.165-3.406V1.135A1.135,1.135,0,0,0,49.95,0H40.868a7.947,7.947,0,0,0-6.811,3.875A7.947,7.947,0,0,0,27.245,0H18.164a1.135,1.135,0,0,0-1.135,1.135V7.947a5.62,5.62,0,0,0,1.165,3.406H3.406A3.406,3.406,0,0,0,0,14.758V28.38a3.406,3.406,0,0,0,2.27,3.2v28.59a5.683,5.683,0,0,0,5.676,5.676h52.22a5.683,5.683,0,0,0,5.676-5.676V31.577a3.406,3.406,0,0,0,2.27-3.2V14.758a3.406,3.406,0,0,0-3.406-3.406ZM40.868,2.27h7.947V7.947a3.406,3.406,0,0,1-3.406,3.406H35.192V7.947A5.683,5.683,0,0,1,40.868,2.27ZM19.3,7.947V2.27h7.947a5.683,5.683,0,0,1,5.676,5.676v3.406H22.7A3.406,3.406,0,0,1,19.3,7.947Zm44.274,52.22a3.406,3.406,0,0,1-3.406,3.406H7.947a3.406,3.406,0,0,1-3.406-3.406V31.786H63.572Zm2.27-31.786a1.135,1.135,0,0,1-1.135,1.135H3.406A1.135,1.135,0,0,1,2.27,28.38V14.758a1.135,1.135,0,0,1,1.135-1.135h61.3a1.135,1.135,0,0,1,1.135,1.135Zm0,0" transform="translate(0)" fill="#1e1b4e"/>
    <path id="Path_1861" data-name="Path 1861" d="M170.8,284.292a1.134,1.134,0,0,0,1.1,0c.442-.246,10.8-6.083,10.8-13.481A6.8,6.8,0,0,0,175.9,264h-.016a6.678,6.678,0,0,0-4.534,1.754A6.669,6.669,0,0,0,166.811,264,6.785,6.785,0,0,0,160,270.8c0,2.7,1.362,5.482,4.049,8.287A32.274,32.274,0,0,0,170.8,284.292Zm-7.237-16.67a4.59,4.59,0,0,1,3.247-1.352h.014a4.507,4.507,0,0,1,3.619,1.848,1.135,1.135,0,0,0,1.816,0,4.473,4.473,0,0,1,3.625-1.848h.008a4.533,4.533,0,0,1,4.541,4.541c0,5.206-7.039,9.909-9.082,11.167a30.313,30.313,0,0,1-5.665-4.469c-2.269-2.357-3.417-4.612-3.417-6.7A4.555,4.555,0,0,1,163.565,267.622Zm0,0" transform="translate(-137.295 -226.537)" fill="#1e1b4e"/>
  </g>
</svg>
