<svg xmlns="http://www.w3.org/2000/svg" width="68.113" height="68.113" viewBox="0 0 68.113 68.113">
  <g id="Extreme_Ownership_" data-name="Extreme Ownership " transform="translate(0 0)">
    <path id="Path_1823" data-name="Path 1823" d="M37.516,348.434H8v-6.811A13.623,13.623,0,0,1,21.623,328l4.541,5.676L30.7,328a13.623,13.623,0,0,1,13.623,13.623v6.811Zm0,0" transform="translate(-6.865 -281.456)" fill="#2ad490"/>
    <path id="Path_1824" data-name="Path 1824" d="M84.434,122.217v1.135c-.386,0-.761-.023-1.135-.057a17.06,17.06,0,0,1-9.082-4.484,14.507,14.507,0,0,1-9.082,4.541,7.321,7.321,0,0,1-1.135,0v-1.135a10.217,10.217,0,1,1,20.434,0Zm0,0" transform="translate(-54.918 -96.107)" fill="#efeff9"/>
    <path id="Path_1825" data-name="Path 1825" d="M170.27,8h38.6a2.278,2.278,0,0,1,2.27,2.27v4.541H168V10.27A2.278,2.278,0,0,1,170.27,8Zm0,0" transform="translate(-144.16 -6.865)" fill="#eb4a54"/>
    <g id="Group_2650" data-name="Group 2650" transform="translate(0 0)">
      <path id="Path_1826" data-name="Path 1826" d="M64.707,0H26.11A3.406,3.406,0,0,0,22.7,3.406V15.281A11.352,11.352,0,0,0,7.947,26.11v1.135a1.135,1.135,0,0,0,1.01,1.129l.108.007a3.406,3.406,0,0,0,.017,6.811v2.27a5.686,5.686,0,0,0,4.541,5.562v2.443A14.768,14.768,0,0,0,0,60.166v6.811a1.135,1.135,0,0,0,1.135,1.135H37.462A1.135,1.135,0,0,0,38.6,66.978V60.166a14.768,14.768,0,0,0-13.623-14.7V43.025a5.66,5.66,0,0,0,3.376-2.157H64.707a3.406,3.406,0,0,0,3.406-3.406V3.405A3.406,3.406,0,0,0,64.707,0ZM26.11,2.27h38.6a1.135,1.135,0,0,1,1.135,1.135V6.811H24.975V3.406A1.135,1.135,0,0,1,26.11,2.27ZM19.3,17.028a9.092,9.092,0,0,1,9.082,9.015A16.1,16.1,0,0,1,20.1,21.9a1.135,1.135,0,0,0-1.6,0,13.345,13.345,0,0,1-8.279,4.209A9.092,9.092,0,0,1,19.3,17.028ZM20.434,28.38h-2.27a1.135,1.135,0,0,0-1.135-1.135H14.716a16.988,16.988,0,0,0,4.606-3,19.685,19.685,0,0,0,4.888,3H21.569a1.135,1.135,0,0,0-1.135,1.135Zm-9.082,1.135h4.541v2.27H11.352Zm11.352,0h4.541v2.27H22.7Zm6.811,1.135a1.135,1.135,0,1,1,0,2.27ZM7.947,31.786a1.135,1.135,0,0,1,1.135-1.135v2.27A1.135,1.135,0,0,1,7.947,31.786ZM22.7,46.145,19.3,50.4l-3.406-4.257V43.138H22.7ZM36.327,60.166v5.676H31.786V60.166h-2.27v5.676H9.082V60.166H6.811v5.676H2.27V60.166A12.493,12.493,0,0,1,14.233,47.705l4.179,5.222a1.135,1.135,0,0,0,1.773,0l4.179-5.222A12.493,12.493,0,0,1,36.327,60.166Zm-9.082-22.7a3.406,3.406,0,0,1-3.406,3.406H14.758a3.406,3.406,0,0,1-3.406-3.406V34.056h5.676a1.135,1.135,0,0,0,1.135-1.135v-2.27h2.27v2.27a1.135,1.135,0,0,0,1.135,1.135h5.676ZM64.707,38.6H29.4a5.658,5.658,0,0,0,.114-1.135v-2.27a3.406,3.406,0,0,0,0-6.811,1.135,1.135,0,0,0,1.135-1.135V26.11a11.352,11.352,0,0,0-5.676-9.816V9.082H65.843v28.38A1.135,1.135,0,0,1,64.707,38.6Zm0,0" transform="translate(0 0)" fill="#1e1b4e"/>
      <path id="Path_1827" data-name="Path 1827" d="M192,24h2.27v2.27H192Zm0,0" transform="translate(-164.755 -20.594)" fill="#fff"/>
      <path id="Path_1828" data-name="Path 1828" d="M224,24h2.27v2.27H224Zm0,0" transform="translate(-192.214 -20.594)" fill="#fff"/>
      <path id="Path_1829" data-name="Path 1829" d="M256,24h2.27v2.27H256Zm0,0" transform="translate(-219.673 -20.594)" fill="#fff"/>
      <path id="Path_1830" data-name="Path 1830" d="M251.741,130.344l-3.406,3.406a1.136,1.136,0,0,0,0,1.605l3.406,3.406,1.605-1.605-2.6-2.6,2.6-2.6Zm0,0" transform="translate(-212.811 -111.848)" fill="#1e1b4e"/>
      <path id="Path_1831" data-name="Path 1831" d="M371.949,130.344l-1.605,1.605,2.6,2.6-2.6,2.6,1.605,1.605,3.406-3.406a1.136,1.136,0,0,0,0-1.605Zm0,0" transform="translate(-317.791 -111.848)" fill="#1e1b4e"/>
      <path id="Path_1832" data-name="Path 1832" d="M304.586,128.381l4.536-11.353,2.109.843-4.536,11.353Zm0,0" transform="translate(-261.365 -100.421)" fill="#1e1b4e"/>
    </g>
  </g>
</svg>
