<svg xmlns="http://www.w3.org/2000/svg" width="59.024" height="70.935" viewBox="0 0 59.024 70.935">
  <g id="Giver" transform="translate(0 0)">
    <path id="Path_1854" data-name="Path 1854" d="M120.756,185.76c3.826-2.1,13.146-8.071,13.146-16.188a7.947,7.947,0,0,0-7.947-7.947,7.547,7.547,0,0,0-6.811,3.406,7.547,7.547,0,0,0-6.811-3.406,7.946,7.946,0,0,0-7.947,7.947c0,8.117,9.32,14.088,13.146,16.188.987.557,1.612.84,1.612.84S119.769,186.317,120.756,185.76Zm0,0" transform="translate(-89.637 -138.677)" fill="#2ad490"/>
    <g id="Group_2652" data-name="Group 2652" transform="translate(0 0)">
      <path id="Path_1855" data-name="Path 1855" d="M231.038,74.627A29.59,29.59,0,0,0,207.391,45.7a1.136,1.136,0,1,0-.454,2.226,27.245,27.245,0,0,1-3.333,53.864l4.829-7.851a1.135,1.135,0,1,0-1.93-1.19l-5.948,9.669c-.015.024-.015.052-.028.077a1.159,1.159,0,0,0-.079.213,1.13,1.13,0,0,0-.045.227c0,.028-.016.053-.016.081a1.038,1.038,0,0,0,.025.124.958.958,0,0,0,.134.422,1.015,1.015,0,0,0,.119.176,1.174,1.174,0,0,0,.169.159,1.268,1.268,0,0,0,.093.086l9.668,5.947a1.135,1.135,0,1,0,1.191-1.93l-6.632-4.081a29.553,29.553,0,0,0,25.883-29.288Zm0,0" transform="translate(-172.014 -39.191)" fill="#1e1b4e"/>
      <path id="Path_1856" data-name="Path 1856" d="M24.484,62.134A27.245,27.245,0,0,1,27.862,8.278l-4.83,7.851a1.135,1.135,0,1,0,1.93,1.19L30.912,7.65c.014-.024.014-.052.028-.077a1.146,1.146,0,0,0,.078-.213,1.094,1.094,0,0,0,.045-.227c0-.028.016-.053.016-.081a1.172,1.172,0,0,0-.025-.124,1.217,1.217,0,0,0-.045-.227,1.146,1.146,0,0,0-.089-.2,1.051,1.051,0,0,0-.114-.176,1.209,1.209,0,0,0-.169-.159,1.257,1.257,0,0,0-.093-.086L20.874.141a1.135,1.135,0,0,0-1.191,1.93l6.632,4.076a29.516,29.516,0,0,0-2.279,58.207,1.249,1.249,0,0,0,.227.023,1.135,1.135,0,0,0,.227-2.247Zm0,0" transform="translate(-0.44 0.001)" fill="#1e1b4e"/>
      <path id="Path_1857" data-name="Path 1857" d="M112.28,180.911a1.139,1.139,0,0,0,.47-.1c.026-.013.681-.31,1.688-.878,4.13-2.267,13.735-8.479,13.735-17.184a9.36,9.36,0,0,0-15.893-6.424,9.36,9.36,0,0,0-15.893,6.424c0,8.7,9.605,14.917,13.723,17.177,1.022.574,1.672.872,1.7.885a1.137,1.137,0,0,0,.467.1ZM98.657,162.748a6.818,6.818,0,0,1,6.811-6.811,6.429,6.429,0,0,1,5.837,2.853,1.178,1.178,0,0,0,1.948,0,6.428,6.428,0,0,1,5.837-2.853,6.818,6.818,0,0,1,6.811,6.811c0,7.7-9.612,13.576-12.568,15.2-.432.244-.794.433-1.054.568-.262-.133-.627-.325-1.065-.568-2.946-1.624-12.558-7.5-12.558-15.2Zm0,0" transform="translate(-82.772 -131.852)" fill="#1e1b4e"/>
    </g>
  </g>
</svg>
