<svg xmlns="http://www.w3.org/2000/svg" width="17.986" height="17.986" viewBox="0 0 17.986 17.986">
  <path id="headset" d="M6.745,7.307A1.124,1.124,0,0,0,5.621,6.183H5.059A2.248,2.248,0,0,0,2.81,8.431v1.686a2.248,2.248,0,0,0,2.248,2.248h.562a1.124,1.124,0,0,0,1.124-1.124Zm6.183,5.059a2.248,2.248,0,0,0,2.248-2.248V8.431a2.248,2.248,0,0,0-2.248-2.248h-.562a1.124,1.124,0,0,0-1.124,1.124v3.934a1.124,1.124,0,0,0,1.124,1.124ZM8.993,0A9.164,9.164,0,0,0,0,8.993v.562a.562.562,0,0,0,.562.562h.562a.562.562,0,0,0,.562-.562V8.993a7.307,7.307,0,0,1,14.613,0h0c0,.085,0,5.822,0,5.822A1.485,1.485,0,0,1,14.814,16.3H11.241a1.686,1.686,0,0,0-1.686-1.686H8.431a1.686,1.686,0,1,0,0,3.372h6.384a3.171,3.171,0,0,0,3.171-3.171V8.993A9.164,9.164,0,0,0,8.993,0Z" fill="#2ad490"/>
</svg>
