<svg xmlns="http://www.w3.org/2000/svg" width="28.844" height="28.837"><path data-name="Icon awesome-instagram" d="M14.425 7.025a7.394 7.394 0 107.394 7.394 7.382 7.382 0 00-7.394-7.394zm0 12.2a4.807 4.807 0 114.807-4.807 4.816 4.816 0 01-4.807 4.807zm9.42-12.503a1.725 1.725 0 11-1.725-1.725 1.721 1.721 0 011.725 1.725zm4.9 1.75a8.534 8.534 0 00-2.329-6.042A8.59 8.59 0 0020.374.101c-2.381-.135-9.517-.135-11.9 0A8.578 8.578 0 002.43 2.424 8.562 8.562 0 00.105 8.462c-.135 2.381-.135 9.517 0 11.9a8.534 8.534 0 002.329 6.042 8.6 8.6 0 006.042 2.329c2.381.135 9.517.135 11.9 0a8.534 8.534 0 006.042-2.329 8.59 8.59 0 002.324-6.042c.135-2.381.135-9.511 0-11.891zm-3.078 14.447a4.866 4.866 0 01-2.742 2.743c-1.9.753-6.4.579-8.5.579s-6.609.167-8.5-.579a4.866 4.866 0 01-2.741-2.741c-.753-1.9-.579-6.4-.579-8.5s-.167-6.608.579-8.5a4.866 4.866 0 012.741-2.744c1.9-.753 6.4-.579 8.5-.579s6.609-.167 8.5.579a4.866 4.866 0 012.741 2.741c.753 1.9.579 6.4.579 8.5s.174 6.609-.578 8.501z" fill="#efeff9"/></svg>