<svg xmlns="http://www.w3.org/2000/svg" width="28.4" height="28.4"><path data-name="Icon awesome-linkedin" d="M26.371 0H2.022A2.037 2.037 0 000 2.05v24.3a2.037 2.037 0 002.022 2.05h24.349a2.043 2.043 0 002.029-2.05V2.05A2.043 2.043 0 0026.371 0zM8.583 24.343H4.374V10.789H8.59v13.554zm-2.1-15.4a2.441 2.441 0 112.436-2.445 2.442 2.442 0 01-2.441 2.441zm17.883 15.4h-4.213V17.75c0-1.572-.032-3.594-2.187-3.594-2.193 0-2.529 1.712-2.529 3.48v6.707h-4.21V10.789h4.038v1.851h.057a4.434 4.434 0 013.987-2.19c4.26 0 5.052 2.808 5.052 6.46z" fill="#fff"/></svg>