<svg xmlns="http://www.w3.org/2000/svg" width="32.946" height="26.758"><path data-name="Icon awesome-twitter" d="M29.56 6.668c.021.293.021.585.021.878 0 8.926-6.794 19.211-19.212 19.211A19.081 19.081 0 010 23.727a13.969 13.969 0 001.631.084 13.523 13.523 0 008.383-2.885A6.764 6.764 0 013.7 16.243a8.515 8.515 0 001.275.1 7.142 7.142 0 001.777-.23 6.753 6.753 0 01-5.414-6.627v-.084a6.8 6.8 0 003.052.857A6.762 6.762 0 012.3 1.233a19.193 19.193 0 0013.922 7.066 7.622 7.622 0 01-.167-1.547 6.759 6.759 0 0111.686-4.62A13.294 13.294 0 0032.027.501a6.734 6.734 0 01-2.969 3.718 13.536 13.536 0 003.888-1.045 14.515 14.515 0 01-3.387 3.491z" fill="#efeff9"/></svg>