<svg xmlns="http://www.w3.org/2000/svg" width="85.834" height="67.793" viewBox="0 0 85.834 67.793">
  <path id="clients-say" d="M13.351,15.8c11.464-7.575,26.7-9.3,39.358-7.014,17.922,3.092,24,11.789,24,11.789,12.893,13.143,6.764,27.777,0,34.687-1.769,8.1,9.121,17.359,9.121,17.359C82.769,74.436,66.943,80.7,52.709,67.11c-12.629,2.27-27.866.56-39.358-7.028-17.772-11.346-17.83-32.875,0-44.28ZM42,60.009a50.6,50.6,0,0,0,13.13-1.694l2.946,2.845a26.784,26.784,0,0,0,5.453,4.082,21.33,21.33,0,0,0,7.706,2.2c-.149-.265-.28-.53-.413-.781q-4.421-8.2-2.384-14.706c4.848-3.816,7.749-8.694,7.749-14.027C76.182,25.7,60.872,15.8,42,15.8S7.81,25.7,7.81,37.922,23.12,60.009,42,60.009ZM58.4,43.182a5.114,5.114,0,0,0,5.186-5.025c.1-6.764-10.108-6.911-10.211-.162v.076A5.067,5.067,0,0,0,58.4,43.185ZM47.4,38.158c.118-6.764-10.094-6.926-10.212-.177v.091C37.134,44.789,47.286,44.862,47.4,38.158ZM26.038,43.182a5.116,5.116,0,0,0,5.187-5.025c.1-6.764-10.109-6.911-10.212-.162v.076a5.05,5.05,0,0,0,5.025,5.114Z" transform="translate(0 -7.852)" fill="#eb4a54"/>
</svg>
