<svg xmlns="http://www.w3.org/2000/svg" width="157.51" height="53.072" viewBox="0 0 157.51 53.072">
  <g id="logo-final" transform="translate(-14.47 -11.15)">
    <path id="Path_566" data-name="Path 566" d="M49.56,217.734V208.67h1.3v9.064Z" transform="translate(-27.847 -156.749)" fill="#616262"/>
    <path id="Path_567" data-name="Path 567" d="M65.56,209.868V208.63h6.215v1.238h-2.46v7.844H68.02v-7.844Z" transform="translate(-40.544 -156.718)" fill="#616262"/>
    <path id="Path_568" data-name="Path 568" d="M118.56,215.85l.894-.879a2.819,2.819,0,0,0,2.215,1.164,1.691,1.691,0,0,0,1.11-.382,1.271,1.271,0,0,0,0-1.973,5.444,5.444,0,0,0-1.373-.733,7.881,7.881,0,0,1-1.276-.6,2.307,2.307,0,0,1-1.152-2,2.2,2.2,0,0,1,.784-1.7,2.813,2.813,0,0,1,1.961-.706,3.7,3.7,0,0,1,2.434.906l-.76.941a2.454,2.454,0,0,0-1.618-.619,1.717,1.717,0,0,0-1.055.33,1.054,1.054,0,0,0,.031,1.746,6.782,6.782,0,0,0,1.354.7,7.723,7.723,0,0,1,1.261.619,2.37,2.37,0,0,1,1.179,2.064,2.438,2.438,0,0,1-.8,1.9,2.89,2.89,0,0,1-2.006.724A3.951,3.951,0,0,1,118.56,215.85Z" transform="translate(-82.605 -156.251)" fill="#616262"/>
    <path id="Path_569" data-name="Path 569" d="M157.039,221.644l.248,1.113a3.065,3.065,0,0,1-.96.13,2.19,2.19,0,0,1-1.721-.712,2.333,2.333,0,0,1-.491-1.618v-2.785H152.56v-1.1h1.554V215h1.238v1.682H157.3v1.1h-1.942v2.848a1.215,1.215,0,0,0,.182.778,1.013,1.013,0,0,0,.84.324A2.477,2.477,0,0,0,157.039,221.644Z" transform="translate(-109.587 -161.773)" fill="#616262"/>
    <path id="Path_570" data-name="Path 570" d="M188.246,228.691v-.555a2.712,2.712,0,0,1-1.876.685,2.933,2.933,0,0,1-1.527-.4,3.049,3.049,0,0,1-1.133-1.146,3.338,3.338,0,0,1,0-3.257,3.113,3.113,0,0,1,1.139-1.152,2.865,2.865,0,0,1,1.488-.388,2.826,2.826,0,0,1,1.9.685v-.557h1.191v6.085Zm-.039-1.9v-2.271a2.074,2.074,0,0,0-1.734-.867,1.841,1.841,0,0,0-1.406.588,2,2,0,0,0-.549,1.418,1.955,1.955,0,0,0,.576,1.418,1.93,1.93,0,0,0,1.445.59,1.99,1.99,0,0,0,1.668-.877Z" transform="translate(-133.969 -167.707)" fill="#616262"/>
    <path id="Path_571" data-name="Path 571" d="M232.162,207.5l-.26,1.127a1.65,1.65,0,0,0-.452-.052,1.1,1.1,0,0,0-.933.427,1.9,1.9,0,0,0-.233,1.088v.555h4.541v6.085h-1.238v-4.985h-3.3v4.985h-1.238v-4.985h-3.282v4.985h-1.238v-4.985H223.1v-1.1h1.424v-.518a3.017,3.017,0,0,1,.388-1.709,2.281,2.281,0,0,1,1.994-1.009,2.529,2.529,0,0,1,.725.091l-.258,1.127a1.665,1.665,0,0,0-.454-.052,1.1,1.1,0,0,0-.931.427,1.867,1.867,0,0,0-.233,1.088v.555h3.3v-.518a3.018,3.018,0,0,1,.388-1.709,2.281,2.281,0,0,1,1.994-1.009A2.545,2.545,0,0,1,232.162,207.5Zm1.463,1.424a.768.768,0,0,1-.225-.57.789.789,0,0,1,.233-.576.766.766,0,0,1,.57-.239.826.826,0,0,1,.815.815.766.766,0,0,1-.239.57.8.8,0,0,1-.576.233.776.776,0,0,1-.57-.233Z" transform="translate(-165.566 -155.749)" fill="#616262"/>
    <path id="Path_572" data-name="Path 572" d="M294.828,222.6v.582a2.531,2.531,0,0,1,1.825-.71,2.683,2.683,0,0,1,2.215,1.073,3.426,3.426,0,0,1,.594,2.163v2.976h-1.238v-3.043a2.247,2.247,0,0,0-.361-1.41,1.513,1.513,0,0,0-1.257-.6,2.178,2.178,0,0,0-1.746.867v4.182H293.62V222.6Z" transform="translate(-221.53 -167.706)" fill="#616262"/>
    <path id="Path_573" data-name="Path 573" d="M337.493,228.15a2.716,2.716,0,0,1-1.837.661,2.947,2.947,0,0,1-1.53-.4,3.079,3.079,0,0,1-1.133-1.146,3.346,3.346,0,0,1,0-3.257,3.113,3.113,0,0,1,1.139-1.152,2.865,2.865,0,0,1,1.488-.388,2.83,2.83,0,0,1,1.9.685V222.6h1.191v5.827a4.484,4.484,0,0,1-.361,1.994,2.716,2.716,0,0,1-1.057,1.106,3.059,3.059,0,0,1-1.573.4,3.753,3.753,0,0,1-1.827-.425,2.985,2.985,0,0,1-1.119-.985l.906-.842a2.436,2.436,0,0,0,2.006,1.088,1.626,1.626,0,0,0,1.476-.7,2.909,2.909,0,0,0,.336-1.567Zm0-1.373v-2.271a2.074,2.074,0,0,0-1.734-.867,1.841,1.841,0,0,0-1.406.588,2,2,0,0,0-.549,1.418,1.955,1.955,0,0,0,.576,1.418,1.93,1.93,0,0,0,1.445.59,1.994,1.994,0,0,0,1.668-.875Z" transform="translate(-252.44 -167.699)" fill="#616262"/>
    <path id="Path_574" data-name="Path 574" d="M397.576,215.366l1.858,1.858h-1.651l-.921-.906a3.808,3.808,0,0,1-2.718,1.032,3.414,3.414,0,0,1-2.271-.764,2.714,2.714,0,0,1-.489-3.478,5.255,5.255,0,0,1,1.158-1.16,2.937,2.937,0,0,1-1-1.889,1.969,1.969,0,0,1,.59-1.445,2.128,2.128,0,0,1,2.925-.025,1.9,1.9,0,0,1,.619,1.463,2.015,2.015,0,0,1-.336,1.158,4.186,4.186,0,0,1-.945.964l2.271,2.271a2.991,2.991,0,0,0,.194-1.088,4.8,4.8,0,0,0-.233-1.54l1.166-.324a5.573,5.573,0,0,1,.3,1.858A4.128,4.128,0,0,1,397.576,215.366Zm-5.385-.789a1.42,1.42,0,0,0,.551,1.158,2.155,2.155,0,0,0,1.4.448,2.578,2.578,0,0,0,1.858-.727l-2.642-2.654a2.223,2.223,0,0,0-1.177,1.775Zm2.252-4.518a.854.854,0,0,0-.239-.619.762.762,0,0,0-.576-.254.8.8,0,0,0-.619.26.886.886,0,0,0-.233.619,2.147,2.147,0,0,0,.751,1.282q.912-.706.91-1.288Z" transform="translate(-298.781 -156.233)" fill="#616262"/>
    <path id="Path_575" data-name="Path 575" d="M452.08,215.85l.894-.879a2.809,2.809,0,0,0,2.213,1.164,1.7,1.7,0,0,0,1.115-.382,1.271,1.271,0,0,0,0-1.973,5.481,5.481,0,0,0-1.373-.733,7.8,7.8,0,0,1-1.276-.6,2.307,2.307,0,0,1-1.152-2,2.21,2.21,0,0,1,.782-1.7,2.822,2.822,0,0,1,1.963-.706,3.715,3.715,0,0,1,2.434.906l-.764.945a2.458,2.458,0,0,0-1.618-.619,1.728,1.728,0,0,0-1.057.33,1.047,1.047,0,0,0-.446.885,1.02,1.02,0,0,0,.479.861,6.755,6.755,0,0,0,1.352.7,7.675,7.675,0,0,1,1.263.619,2.364,2.364,0,0,1,1.179,2.064,2.446,2.446,0,0,1-.8,1.9,2.89,2.89,0,0,1-2.006.725A3.951,3.951,0,0,1,452.08,215.85Z" transform="translate(-347.282 -156.251)" fill="#616262"/>
    <path id="Path_576" data-name="Path 576" d="M490.432,227.918a3.3,3.3,0,0,1,0-4.531,3.237,3.237,0,0,1,4.492,0,3.3,3.3,0,0,1,0,4.531,3.237,3.237,0,0,1-4.492,0Zm.873-3.691a2.14,2.14,0,0,0,0,2.848,1.905,1.905,0,0,0,2.745,0,2.141,2.141,0,0,0,0-2.848,1.909,1.909,0,0,0-2.745,0Z" transform="translate(-377.004 -167.71)" fill="#616262"/>
    <path id="Path_577" data-name="Path 577" d="M531.3,217.242V208.05h1.239v9.192Z" transform="translate(-410.15 -156.257)" fill="#616262"/>
    <path id="Path_578" data-name="Path 578" d="M553.151,229.315a2.632,2.632,0,0,1-2.163-1.032,3.269,3.269,0,0,1-.557-2.085v-3.1h1.239v3.3a1.837,1.837,0,0,0,.351,1.216,1.445,1.445,0,0,0,1.179.533,2.2,2.2,0,0,0,1.709-.869V223.1h1.214v6.085H554.93v-.555a2.475,2.475,0,0,1-.737.473A2.547,2.547,0,0,1,553.151,229.315Z" transform="translate(-425.331 -168.201)" fill="#616262"/>
    <path id="Path_579" data-name="Path 579" d="M591.609,221.644l.246,1.113a3.043,3.043,0,0,1-.958.13,2.19,2.19,0,0,1-1.721-.712,2.347,2.347,0,0,1-.491-1.618v-2.785H587.13v-1.1h1.554V215h1.238v1.682h1.928v1.1h-1.94v2.848a1.23,1.23,0,0,0,.18.778,1.032,1.032,0,0,0,.842.324,2.488,2.488,0,0,0,.677-.089Z" transform="translate(-454.456 -161.773)" fill="#616262"/>
    <path id="Path_580" data-name="Path 580" d="M620.6,210.057a.782.782,0,0,1-.233-.57.8.8,0,0,1,.233-.576.766.766,0,0,1,.57-.242.826.826,0,0,1,.826.826.772.772,0,0,1-.239.57.8.8,0,0,1-.578.233A.782.782,0,0,1,620.6,210.057Zm-.037,7.676v-6.085h1.228v6.085Z" transform="translate(-480.834 -156.749)" fill="#616262"/>
    <path id="Path_581" data-name="Path 581" d="M639.472,227.918a3.3,3.3,0,0,1,0-4.531,3.237,3.237,0,0,1,4.492,0,3.3,3.3,0,0,1,0,4.531A3.237,3.237,0,0,1,639.472,227.918Zm.873-3.691a2.134,2.134,0,0,0,0,2.848,1.905,1.905,0,0,0,2.745,0,2.14,2.14,0,0,0,0-2.848,1.909,1.909,0,0,0-2.745,0Z" transform="translate(-495.28 -167.71)" fill="#616262"/>
    <path id="Path_582" data-name="Path 582" d="M681.467,222.6v.582a2.533,2.533,0,0,1,1.827-.71,2.683,2.683,0,0,1,2.213,1.073,3.434,3.434,0,0,1,.6,2.163v2.976h-1.238v-3.043a2.238,2.238,0,0,0-.363-1.41,1.507,1.507,0,0,0-1.255-.6,2.182,2.182,0,0,0-1.748.867v4.182H680.26V222.6Z" transform="translate(-528.363 -167.705)" fill="#616262"/>
    <path id="Path_583" data-name="Path 583" d="M718.92,228l.634-.906a2.89,2.89,0,0,0,1.8.673,1.3,1.3,0,0,0,.745-.206.642.642,0,0,0,.316-.551.6.6,0,0,0-.1-.343.745.745,0,0,0-.318-.246,3.3,3.3,0,0,0-.413-.155q-.206-.058-.533-.142c-.219-.056-.4-.105-.537-.149q-1.4-.466-1.4-1.567a1.651,1.651,0,0,1,.673-1.412,2.6,2.6,0,0,1,1.579-.491,3.1,3.1,0,0,1,2.021.673l-.636.873a2.157,2.157,0,0,0-1.307-.479,1.406,1.406,0,0,0-.784.206.632.632,0,0,0-.316.555.456.456,0,0,0,.264.427,3.906,3.906,0,0,0,.826.285c.293.078.547.159.764.239a4.178,4.178,0,0,1,.685.345,1.612,1.612,0,0,1,.563.561,1.524,1.524,0,0,1,.206.784,1.627,1.627,0,0,1-.667,1.346,2.516,2.516,0,0,1-1.6.518A3.771,3.771,0,0,1,718.92,228Z" transform="translate(-559.043 -167.727)" fill="#616262"/>
    <path id="Path_584" data-name="Path 584" d="M19.63,79.013H14.47L25.455,53.37h3.48L39.925,79.013h-5.16l-2.417-5.678h-10.3Zm7.54-17.657L23.917,68.94h6.521Z" transform="translate(0 -33.505)" fill="#eb4a54"/>
    <path id="Path_585" data-name="Path 585" d="M167.57,67.658h-1.8V79.011H160.82V53.37h9.34a8.018,8.018,0,0,1,5.606,1.905,7.179,7.179,0,0,1,0,10.477,6.812,6.812,0,0,1-2.566,1.5l9.6,11.765h-6.11Zm-1.8-4.4h4.1a3.271,3.271,0,0,0,2.491-.768,2.784,2.784,0,0,0,.733-1.942,2.826,2.826,0,0,0-.733-1.977,3.229,3.229,0,0,0-2.491-.807h-4.1Z" transform="translate(-116.142 -33.505)" fill="#eb4a54"/>
    <path id="Path_586" data-name="Path 586" d="M523.412,53.37l-7.8,11.972L524.512,79h-5.678l-6.227-9.743L506.378,79H500.7l8.865-13.662L501.794,53.37h5.676l5.136,8.1,5.129-8.1Z" transform="translate(-385.866 -33.505)" fill="#1e1b4e"/>
    <path id="Path_587" data-name="Path 587" d="M641.79,79.013V53.37h4.954V79.013Z" transform="translate(-497.833 -33.505)" fill="#1e1b4e"/>
    <path id="Path_588" data-name="Path 588" d="M690.59,74.105l3.224-3.369a7.911,7.911,0,0,0,6.044,2.82,3.891,3.891,0,0,0,2.683-.916,2.937,2.937,0,0,0,1.044-2.308,2.83,2.83,0,0,0-1.164-2.365,14.674,14.674,0,0,0-3.571-1.814,25.374,25.374,0,0,1-3.461-1.538,6.5,6.5,0,0,1-3.627-5.825,6.324,6.324,0,0,1,2.526-5.239,9.363,9.363,0,0,1,5.936-1.977,12.158,12.158,0,0,1,7.431,2.417l-2.56,3.668a6.318,6.318,0,0,0-4.434-1.684,5.366,5.366,0,0,0-2.764.7,2.27,2.27,0,0,0-1.191,2.087,2.331,2.331,0,0,0,1.226,1.924,14.127,14.127,0,0,0,2.95,1.466q1.722.642,3.461,1.484a7.91,7.91,0,0,1,2.966,2.526,6.685,6.685,0,0,1,1.228,4.1,6.925,6.925,0,0,1-2.564,5.513,9.142,9.142,0,0,1-6.118,2.18A13.459,13.459,0,0,1,690.59,74.105Z" transform="translate(-536.561 -32.078)" fill="#1e1b4e"/>
    <path id="Path_589" data-name="Path 589" d="M295.529,82.79,283.97,102.48h9.359l6.88-11.718Z" transform="translate(-213.872 -56.853)" fill="#1e1b4e"/>
    <path id="Path_590" data-name="Path 590" d="M408.29,102.48h9.359L406.089,82.79l-4.679,7.972Z" transform="translate(-307.071 -56.853)" fill="#1e1b4e"/>
    <path id="Path_591" data-name="Path 591" d="M357.681,21.275l-1.263-2.153-4.679-7.972-4.681,7.972-1.263,2.153-1.934,3.292h3.866l2.747,4.679.758,1.288.508-14.7.508,14.7L353,29.246l2.747-4.679h3.866Z" transform="translate(-261.4)" fill="#eb4a54"/>
  </g>
</svg>
