<svg xmlns="http://www.w3.org/2000/svg" width="90" height="90" viewBox="0 0 90 90">
  <g id="We_Deliver" data-name="We Deliver" transform="translate(-1054 -1739)">
    <circle id="Ellipse_401" data-name="Ellipse 401" cx="45" cy="45" r="45" transform="translate(1054 1739)" fill="#f1f0e6"/>
    <g id="Group_7278" data-name="Group 7278" transform="translate(508.358 1738.858)">
      <path id="Path_3783" data-name="Path 3783" d="M891.353,39.381l1.247,5.773,6.442,2.961,8.624-8.734-5.091-2.87L900.723,30.5Z" transform="translate(-293.748 -9.342)" fill="#2ad490"/>
      <circle id="Ellipse_403" data-name="Ellipse 403" cx="13.845" cy="13.845" r="13.845" transform="translate(576.902 31.408)" fill="#fff"/>
      <circle id="Ellipse_404" data-name="Ellipse 404" cx="7.391" cy="7.391" r="7.391" transform="translate(583.356 37.862)" fill="#eb4a54"/>
      <path id="Path_3784" data-name="Path 3784" d="M615.455,30.708a1.472,1.472,0,0,0-.454-2.39L610.04,26.16,608.3,21.132a1.472,1.472,0,0,0-2.432-.559l-2.807,2.807a25.752,25.752,0,0,0-12.313-3.231,25.1,25.1,0,1,0,22.092,13.176Zm-10.309,6.146-3.042-.816L609.189,29l2.656,1.155Zm-.554,8.4a13.845,13.845,0,1,1-13.845-13.844,12.906,12.906,0,0,1,6.133,1.422l.759,3.494-1.866,1.854a8.693,8.693,0,1,0,2.076,2.087l1.84-1.828,3.62.971a12.876,12.876,0,0,1,1.283,5.844Zm-8.107,0a5.745,5.745,0,1,1-2.847-4.953l-3.979,3.953a1.472,1.472,0,1,0,2.075,2.088l3.981-3.955a5.7,5.7,0,0,1,.771,2.867Zm9.8-20.937.881,2.543-7.05,7-.6-2.774Zm6.622,20.937a22.161,22.161,0,1,1-22.161-22.161,22.709,22.709,0,0,1,10.136,2.464l-4.018,4.019-.011.012a16.257,16.257,0,0,0-6.107-1.122,16.788,16.788,0,1,0,16.788,16.788,16.091,16.091,0,0,0-.956-5.674c.015-.014.032-.027.047-.042l4.028-4.028A22.15,22.15,0,0,1,612.908,45.253Z" fill="#1e1b4e"/>
    </g>
  </g>
</svg>
