<svg xmlns="http://www.w3.org/2000/svg" width="90" height="90" viewBox="0 0 90 90">
  <g id="we-listen" transform="translate(-273 -1739)">
    <circle id="Ellipse_399" data-name="Ellipse 399" cx="45" cy="45" r="45" transform="translate(273 1739)" fill="#efeff9"/>
    <g id="Group_7262" data-name="Group 7262" transform="translate(269 1759)">
      <rect id="Rectangle_1799" data-name="Rectangle 1799" width="5.629" height="3.58" rx="1.79" transform="translate(44.985 25.006)" fill="#eb4a54"/>
      <path id="Path_3775" data-name="Path 3775" d="M120.287,35.955,119.1,22.791l1.93-5.549,5.035-2.812H131.7l4.573,2.812,1.94,4.44-.323,10.393,3.609-.046,1.057-.883V26.578l-.739-6.888L139.9,15.585l-4.381-3.418L131.1,10.412h-4.758l-3.972,1.247-4.111,3.187-1.247,2.4-1.386,2.448-.739,4.717.277,3.779.092,3.092,1.155,1.212.462,2.448.695,1.016Z" transform="translate(-80.158 -9.39)" fill="#2ad490"/>
      <g id="Group_7256" data-name="Group 7256" transform="translate(58.391 38.869)">
        <g id="Group_7255" data-name="Group 7255">
          <path id="Path_3776" data-name="Path 3776" d="M356.982,396a.982.982,0,1,0,.982.982A.982.982,0,0,0,356.982,396Z" transform="translate(-356 -396)" fill="#1e1b4e"/>
        </g>
      </g>
      <g id="Group_7259" data-name="Group 7259" transform="translate(26)">
        <g id="Group_7258" data-name="Group 7258">
          <g id="Group_7257" data-name="Group 7257">
            <path id="Path_3777" data-name="Path 3777" d="M61.789,35.7,57.124,34.14l-1.675-3.35a10.75,10.75,0,0,0,2.91-5.687l.209-1.252h1.786A2.948,2.948,0,0,0,63.3,20.907V14.723a14.723,14.723,0,0,0-29.446,0v6.184a2.949,2.949,0,0,0,1.963,2.776v1.15a2.948,2.948,0,0,0,2.945,2.945h.862a10.649,10.649,0,0,0,1.646,2.549c.139.16.284.315.432.465L40.027,34.14,35.362,35.7C29.937,37.5,26,43.214,26,49.273a.982.982,0,0,0,.982.982H70.169a.982.982,0,0,0,.982-.982C71.151,43.214,67.214,37.5,61.789,35.7Zm-.454-14.788a.983.983,0,0,1-.982.982h-1.5c.25-1.933.416-3.989.483-6.015,0-.057,0-.113.005-.169h1.992ZM36.8,21.888a.983.983,0,0,1-.982-.982V15.7h1.992q0,.154.011.309v.011h0c.069,1.97.233,3.973.477,5.863H36.8Zm1.963,3.926a.983.983,0,0,1-.982-.982v-.982h.8l.209,1.252c.04.238.089.475.145.711Zm-.98-12.073H35.853a12.761,12.761,0,0,1,25.445,0H59.371a9.941,9.941,0,0,0-9.917-9.815H47.7A9.941,9.941,0,0,0,37.78,13.742ZM47.7,5.889h1.757a7.981,7.981,0,0,1,7.955,7.991c0,.309,0,.578-.008.823,0,0,0,.006,0,.01l-1.228-.175A15.772,15.772,0,0,1,47.306,10.1a.982.982,0,0,0-.694-.287,8.88,8.88,0,0,0-6.827,3.23A7.979,7.979,0,0,1,47.7,5.889ZM40.972,25.815a56.1,56.1,0,0,1-1.178-9.526l1.321-1.761a6.909,6.909,0,0,1,5.109-2.737A17.754,17.754,0,0,0,55.9,16.48l1.445.207c-.1,2.05-.294,4.107-.577,6v0c-.09.608-.161,1-.342,2.093a8.337,8.337,0,0,1-5.917,6.705,7.723,7.723,0,0,1-8.669-3.708h2a2.949,2.949,0,0,0,2.776,1.963h1.963a2.945,2.945,0,1,0,0-5.889H46.612a2.946,2.946,0,0,0-2.777,1.963Zm5.557,7.658a9.845,9.845,0,0,0,3.651.082l-1.734,1.834Zm.567,3.343-3.113,3.292a37.4,37.4,0,0,1-2.2-5.1l1.169-2.338Zm6.933-4.474,1.335,2.671a37.388,37.388,0,0,1-2.2,5.1l-3.332-3.332Zm-8.4-5.545a.982.982,0,0,1,.982-.982h1.963a.982.982,0,0,1,0,1.963H46.612A.983.983,0,0,1,45.631,26.8ZM28,48.292a12.4,12.4,0,0,1,7.98-10.734l4.132-1.377a39.347,39.347,0,0,0,2.794,6.06l.005.01h0a39.357,39.357,0,0,0,2.687,4.1l1.207,1.938Zm20.573-.875L47.244,45.28q-.022-.036-.048-.07a37.426,37.426,0,0,1-2.212-3.3l3.5-3.7,3.688,3.688a37.384,37.384,0,0,1-2.219,3.317C49.906,45.274,49.975,45.173,48.575,47.417Zm1.768.875,1.207-1.938a39.343,39.343,0,0,0,2.706-4.135l.014-.026,0,0a39.315,39.315,0,0,0,2.764-6.008l4.132,1.377a12.4,12.4,0,0,1,7.98,10.734Z" transform="translate(-26)" fill="#1e1b4e"/>
          </g>
        </g>
      </g>
      <g id="Group_7261" data-name="Group 7261" transform="translate(61.84 40.743)">
        <g id="Group_7260" data-name="Group 7260">
          <path id="Path_3778" data-name="Path 3778" d="M395.5,418.665a9.814,9.814,0,0,0-2.779-3.373.982.982,0,1,0-1.2,1.556,7.839,7.839,0,0,1,2.219,2.695.982.982,0,0,0,1.756-.877Z" transform="translate(-391.139 -415.089)" fill="#1e1b4e"/>
        </g>
      </g>
    </g>
  </g>
</svg>
