<svg xmlns="http://www.w3.org/2000/svg" width="90" height="90" viewBox="0 0 90 90">
  <g id="We_Understand" data-name="We Understand" transform="translate(-662 -1739)">
    <circle id="Ellipse_400" data-name="Ellipse 400" cx="45" cy="45" r="45" transform="translate(662 1739)" fill="#f9eff0"/>
    <g id="Group_7277" data-name="Group 7277" transform="translate(654 1759)">
      <rect id="Rectangle_1800" data-name="Rectangle 1800" width="10.892" height="25.574" transform="translate(32.712 22.455)" fill="#2ad490"/>
      <g id="Group_7265" data-name="Group 7265" transform="translate(31 8.887)">
        <g id="Group_7264" data-name="Group 7264">
          <g id="Group_7263" data-name="Group 7263">
            <path id="Path_3779" data-name="Path 3779" d="M73.823,113.07a4.392,4.392,0,0,0-3.272-7.324H62.021a28.4,28.4,0,0,0,1.205-7.423V96.859A5.867,5.867,0,0,0,57.367,91H55.9a1.464,1.464,0,0,0-1.421,1.109l-.8,3.192c-1.118,4.471-4.668,9.4-8.342,10.3a4.4,4.4,0,0,0-4.088-2.785H32.465A1.465,1.465,0,0,0,31,104.281v26.367a1.465,1.465,0,0,0,1.465,1.465h8.789a4.4,4.4,0,0,0,3.967-2.5l5.033,1.678a16.078,16.078,0,0,0,5.1.827H67.621a4.4,4.4,0,0,0,4.086-6.014,4.392,4.392,0,0,0,2.116-7.17,4.386,4.386,0,0,0,0-5.859Zm-31.1,14.648a1.467,1.467,0,0,1-1.465,1.465H33.93V105.746h7.324a1.467,1.467,0,0,1,1.465,1.465Zm24.9-13.184h2.93a1.465,1.465,0,0,1,0,2.93h-2.93a1.465,1.465,0,0,0,0,2.93h2.93a1.465,1.465,0,0,1,0,2.93h-2.93a1.465,1.465,0,0,0,0,2.93,1.465,1.465,0,0,1,0,2.93H55.35a13.155,13.155,0,0,1-4.17-.677l-5.531-1.844V108.537a11.8,11.8,0,0,0,6.577-4.273,21.374,21.374,0,0,0,4.3-8.251l.521-2.083h.321a2.933,2.933,0,0,1,2.93,2.93v1.464a23.18,23.18,0,0,1-1.4,7.423H55.9a1.465,1.465,0,0,0,0,2.93H70.551a1.465,1.465,0,0,1,0,2.93h-2.93a1.465,1.465,0,0,0,0,2.93Z" transform="translate(-31 -91)" fill="#1e1b4e"/>
          </g>
        </g>
      </g>
      <g id="Group_7267" data-name="Group 7267" transform="translate(36.756 41.216)">
        <g id="Group_7266" data-name="Group 7266" transform="translate(0 0)">
          <circle id="Ellipse_402" data-name="Ellipse 402" cx="1.5" cy="1.5" r="1.5" transform="translate(-0.236 -0.217)" fill="#fff"/>
        </g>
      </g>
      <g id="Group_7270" data-name="Group 7270" transform="translate(57.367)">
        <g id="Group_7269" data-name="Group 7269">
          <g id="Group_7268" data-name="Group 7268">
            <path id="Path_3780" data-name="Path 3780" d="M302.465,0A1.465,1.465,0,0,0,301,1.465V4.492a1.465,1.465,0,0,0,2.93,0V1.465A1.465,1.465,0,0,0,302.465,0Z" transform="translate(-301)" fill="#eb4a54"/>
          </g>
        </g>
      </g>
      <g id="Group_7273" data-name="Group 7273" transform="translate(48.045 3.959)">
        <g id="Group_7272" data-name="Group 7272">
          <g id="Group_7271" data-name="Group 7271">
            <path id="Path_3781" data-name="Path 3781" d="M210.113,43.042l-2.072-2.072a1.465,1.465,0,0,0-2.072,2.072l2.072,2.072a1.465,1.465,0,1,0,2.072-2.072Z" transform="translate(-205.54 -40.542)" fill="#eb4a54"/>
          </g>
        </g>
      </g>
      <g id="Group_7276" data-name="Group 7276" transform="translate(64.618 3.959)">
        <g id="Group_7275" data-name="Group 7275">
          <g id="Group_7274" data-name="Group 7274">
            <path id="Path_3782" data-name="Path 3782" d="M379.819,40.971a1.465,1.465,0,0,0-2.072,0l-2.072,2.071a1.465,1.465,0,0,0,2.072,2.072l2.072-2.072A1.465,1.465,0,0,0,379.819,40.971Z" transform="translate(-375.247 -40.542)" fill="#eb4a54"/>
          </g>
        </g>
      </g>
    </g>
  </g>
</svg>
