<svg xmlns="http://www.w3.org/2000/svg" width="391" height="300.82" viewBox="0 0 391 300.82">
  <g id="Group_4020" data-name="Group 4020" transform="translate(-296.319 -744.267)">
    <g id="Group_3796" data-name="Group 3796" transform="translate(536.186 911.796)">
      <path id="Rectangle_1607" data-name="Rectangle 1607" d="M15.126,0h93.526a15.126,15.126,0,0,1,15.126,15.126V132.744a0,0,0,0,1,0,0H0a0,0,0,0,1,0,0V15.126A15.126,15.126,0,0,1,15.126,0Z" fill="#344952"/>
      <g id="Group_3795" data-name="Group 3795" transform="translate(113.111 0.677)">
        <path id="Path_2247" data-name="Path 2247" d="M756.475,912.473c.144,0,.261,29.551.261,66s-.117,66-.261,66-.26-29.546-.26-66S756.332,912.473,756.475,912.473Z" transform="translate(-756.215 -912.473)" fill="#1c262a"/>
      </g>
    </g>
    <g id="Group_3986" data-name="Group 3986" transform="translate(386.508 744.267)">
      <g id="Group_3798" data-name="Group 3798" transform="translate(166.546 15.825)">
        <path id="Path_2248" data-name="Path 2248" d="M695.5,767.686a104.977,104.977,0,0,1,18.813,55.337c.582,13.3-1.208,27.474,5.1,39.2,9.055,16.816,28.649,16.245,34.648,34.377,2.609,7.886-2.2,25.242-3.5,33.447-1.474,9.326,4.23,17.156,2.756,26.482-1.351,8.549-7.748,14.65-15.433,18.631-6.836,3.541-13.157,3.635-20.27.69-13.552-5.61-24.833-11.533-34.489-22.574-13.557-15.5-17.652-36.965-19.968-57.427a503.974,503.974,0,0,1,3.069-135.753" transform="translate(-659.974 -760.092)" fill="#0f143d"/>
        <g id="Group_3797" data-name="Group 3797" transform="translate(39.61 68.373)">
          <path id="Path_2249" data-name="Path 2249" d="M724.48,977.753s.147-.046.437-.11.727-.135,1.281-.3a21.126,21.126,0,0,0,4.683-1.872,20.77,20.77,0,0,0,6.185-4.959,13.013,13.013,0,0,0,2.419-4.289,23.554,23.554,0,0,0,.845-5.495,53.894,53.894,0,0,0-1.3-12.742c-.872-4.537-2.055-9.381-2.34-14.623a30.179,30.179,0,0,1,.566-8.018,52.257,52.257,0,0,1,2.543-7.979c1.017-2.647,2.089-5.322,2.864-8.125a20.815,20.815,0,0,0,.693-8.7,19.672,19.672,0,0,0-3.244-8.084,37.562,37.562,0,0,0-5.671-6.425c-4.132-3.855-8.6-7.04-12.423-10.616a70.348,70.348,0,0,1-16.179-22.337,68.529,68.529,0,0,1-3.725-9.973c-.48-1.493-.753-2.931-1.1-4.228l-.7-3.6c-.319-2.184-.55-3.88-.614-5.041-.043-.56-.077-1-.1-1.316-.02-.3-.017-.45-.017-.45s.033.15.07.445c.038.319.089.753.154,1.311.1,1.155.361,2.844.708,5.016.225,1.079.475,2.276.747,3.583.357,1.29.643,2.719,1.135,4.2a69.326,69.326,0,0,0,3.779,9.9,70.522,70.522,0,0,0,16.17,22.139c3.8,3.54,8.277,6.717,12.446,10.6a38.031,38.031,0,0,1,5.753,6.509,20.178,20.178,0,0,1,3.33,8.3,21.322,21.322,0,0,1-.709,8.91c-.789,2.843-1.87,5.532-2.888,8.172a51.88,51.88,0,0,0-2.532,7.9,29.726,29.726,0,0,0-.573,7.891c.267,5.181,1.427,10.013,2.284,14.565a53.877,53.877,0,0,1,1.24,12.842,23.729,23.729,0,0,1-.9,5.58,13.276,13.276,0,0,1-2.509,4.371,20.759,20.759,0,0,1-6.315,4.954,20.234,20.234,0,0,1-4.752,1.794A12.135,12.135,0,0,1,724.48,977.753Z" transform="translate(-699.584 -828.465)" fill="#344952"/>
        </g>
      </g>
      <g id="Group_3832" data-name="Group 3832" transform="translate(0 111.63)">
        <g id="Group_3819" data-name="Group 3819" transform="translate(0 24.533)">
          <g id="Group_3817" data-name="Group 3817">
            <path id="Path_2250" data-name="Path 2250" d="M538.3,1013.486l47.987-22.793s18.69-90.745,22.224-97.56,18.306-12.7,18.306-12.7l-2.475,122.881-4.384,28.344-67.679,6.412Z" transform="translate(-493.427 -880.43)" fill="#4eb285"/>
            <g id="Group_3815" data-name="Group 3815" transform="translate(0 124.253)">
              <g id="Group_3799" data-name="Group 3799" transform="translate(2.989 30.3)">
                <path id="Path_2251" data-name="Path 2251" d="M497.338,1034.983c-.265-.01-1.6.825-.481,2.932s9.243,9.075,11.634,6.648-1.26-5.389-1.26-5.389Z" transform="translate(-496.417 -1034.983)" fill="#fbad8b"/>
              </g>
              <g id="Group_3802" data-name="Group 3802" transform="translate(0 6.93)">
                <g id="Group_3801" data-name="Group 3801">
                  <g id="Group_3800" data-name="Group 3800">
                    <path id="Path_2252" data-name="Path 2252" d="M507.576,1039.269s9.812,1.237,13.591,2.673c4.1,1.56,9.1.5,12.464-1.782a35.45,35.45,0,0,0,5.324-4.339l12.519-.2a15.029,15.029,0,0,0,2.442-15.512,16.776,16.776,0,0,0-2.868-4.886c-1.487-1.608-3.836-2.912-7.894-3.613l-14.873,3.212s-23.042-1.647-27.137.29c0,0-5.149,3.054-6.742,4.334-.6.483-2.425,6.346,1.322,9.394,0,0-3.262,2.595-1.495,4.922l.847,1.033s-2.195,2.84-1.068,4.076,10.985,7.015,14.512,5.637.608-4.644-.944-5.242" transform="translate(-493.427 -1011.613)" fill="#fbad8b"/>
                  </g>
                </g>
              </g>
              <g id="Group_3804" data-name="Group 3804" transform="translate(2.243 19.091)">
                <g id="Group_3803" data-name="Group 3803">
                  <path id="Path_2253" data-name="Path 2253" d="M498.191,1023.777a9.142,9.142,0,0,1,1.219.435c.777.3,1.9.716,3.32,1.166.707.226,1.487.455,2.33.678s1.759.41,2.712.719a5.816,5.816,0,0,1,2.7,1.63,3.335,3.335,0,0,1,.722,3.29,2.6,2.6,0,0,1-1.218,1.309,4.566,4.566,0,0,1-1.639.456,13.584,13.584,0,0,1-3.126-.165,27.583,27.583,0,0,1-5.085-1.325c-1.409-.5-2.52-.969-3.287-1.3a7.653,7.653,0,0,1-1.171-.555,7.982,7.982,0,0,1,1.23.407c.784.281,1.909.71,3.321,1.169a29.353,29.353,0,0,0,5.046,1.226,13.553,13.553,0,0,0,3.03.14,4.209,4.209,0,0,0,1.49-.417,2.189,2.189,0,0,0,1.029-1.1,2.953,2.953,0,0,0-.649-2.879,5.511,5.511,0,0,0-2.514-1.529c-.918-.309-1.837-.5-2.682-.75s-1.626-.485-2.332-.73c-1.412-.488-2.529-.951-3.29-1.293A6.928,6.928,0,0,1,498.191,1023.777Z" transform="translate(-495.67 -1023.774)" fill="#e8845a"/>
                </g>
              </g>
              <g id="Group_3806" data-name="Group 3806" transform="translate(3.415 11.997)">
                <g id="Group_3805" data-name="Group 3805">
                  <path id="Path_2254" data-name="Path 2254" d="M499.073,1016.683a8.6,8.6,0,0,1,1.213.44c.773.3,1.892.726,3.295,1.194s3.091.976,4.992,1.432a6.832,6.832,0,0,1,2.909,1.177,2.479,2.479,0,0,1,.854,1.505,3.134,3.134,0,0,1-.254,1.751,4.209,4.209,0,0,1-2.568,2.186,6.793,6.793,0,0,1-3.128.248,30.022,30.022,0,0,1-5.029-1.457L498.041,1024a7.865,7.865,0,0,1-1.2-.478,7.765,7.765,0,0,1,1.249.327l3.356,1.037a32.473,32.473,0,0,0,4.987,1.357,6.475,6.475,0,0,0,2.95-.253,3.833,3.833,0,0,0,2.324-1.972,2.32,2.32,0,0,0-.489-2.788,6.619,6.619,0,0,0-2.736-1.113,51.811,51.811,0,0,1-5-1.524c-1.4-.506-2.506-.978-3.262-1.321A7.059,7.059,0,0,1,499.073,1016.683Z" transform="translate(-496.842 -1016.68)" fill="#e8845a"/>
                </g>
              </g>
              <g id="Group_3808" data-name="Group 3808" transform="translate(9.411 10.092)">
                <g id="Group_3807" data-name="Group 3807">
                  <path id="Path_2255" data-name="Path 2255" d="M503.8,1018.709a74.925,74.925,0,0,0-.945-3.931,4.9,4.9,0,0,1,.945,3.931Z" transform="translate(-502.839 -1014.775)" fill="#e8845a"/>
                </g>
              </g>
              <g id="Group_3812" data-name="Group 3812" transform="translate(9.872)">
                <g id="Group_3809" data-name="Group 3809" transform="translate(0.202 0.203)">
                  <path id="Path_2256" data-name="Path 2256" d="M538.431,1019l-8.748-3.371s-24.292-11.337-24.7-10.723-1.727.547-1.439,3.509,14.443,8.931,14.891,9.958-.3,6.214,4.929,9.929,9,3.8,9,3.8" transform="translate(-503.501 -1004.886)" fill="#fbad8b"/>
                </g>
                <g id="Group_3811" data-name="Group 3811">
                  <g id="Group_3810" data-name="Group 3810">
                    <path id="Path_2257" data-name="Path 2257" d="M532.363,1032.1a.653.653,0,0,1-.208.006c-.137-.006-.34-.021-.605-.059a13.675,13.675,0,0,1-2.272-.545,22.011,22.011,0,0,1-7.418-4.269,10.534,10.534,0,0,1-2.982-5.114,24.036,24.036,0,0,1-.517-3.266,1.847,1.847,0,0,0-.086-.376.706.706,0,0,0-.229-.234,7.891,7.891,0,0,0-.71-.459c-.5-.293-1.015-.573-1.54-.855-2.107-1.123-4.35-2.258-6.612-3.558-1.13-.65-2.268-1.339-3.372-2.127a12.752,12.752,0,0,1-1.584-1.321,4.395,4.395,0,0,1-.667-.843,1.853,1.853,0,0,1-.2-.546,4.354,4.354,0,0,1-.052-.538,3.834,3.834,0,0,1,.375-2.113,2.5,2.5,0,0,1,.771-.774,1.469,1.469,0,0,0,.336-.29c.026-.024-.021.009.084-.083a.263.263,0,0,1,.171-.055.808.808,0,0,1,.172.014c.093.018.181.038.265.062,1.315.4,2.52.935,3.728,1.431,2.4,1.013,4.694,2.035,6.876,3.015,4.362,1.965,8.268,3.778,11.543,5.314.82.376,1.6.768,2.336,1.082l2.14.842,3.425,1.356,2.158.873.558.237a.824.824,0,0,1,.185.094.8.8,0,0,1-.2-.055l-.573-.2-2.187-.8-3.453-1.293-2.154-.813c-.762-.312-1.529-.69-2.356-1.06l-11.576-5.231c-2.185-.97-4.48-1.985-6.877-2.99-1.2-.49-2.426-1.023-3.68-1.408-.078-.022-.154-.039-.226-.053a.467.467,0,0,0-.08-.008c-.005-.014,0,.03-.012-.033s.005-.065-.016-.1a.068.068,0,0,0-.029-.029c.276.187.07.061.128.106l-.024.031a1.83,1.83,0,0,1-.423.376,2.1,2.1,0,0,0-.659.653,3.474,3.474,0,0,0-.317,1.884,1.811,1.811,0,0,0,.2.9,4.01,4.01,0,0,0,.6.758,12.484,12.484,0,0,0,1.529,1.276c1.084.774,2.212,1.461,3.335,2.11,2.247,1.3,4.481,2.438,6.589,3.572.527.286,1.046.569,1.551.871a7.916,7.916,0,0,1,.743.487,1.021,1.021,0,0,1,.344.388,2.175,2.175,0,0,1,.1.453,23.971,23.971,0,0,0,.49,3.24,10.269,10.269,0,0,0,2.855,4.99,20.109,20.109,0,0,0,3.937,2.8,20.877,20.877,0,0,0,3.33,1.526,15.731,15.731,0,0,0,2.234.615c.261.051.461.079.6.1A.985.985,0,0,1,532.363,1032.1Z" transform="translate(-503.299 -1004.683)" fill="#e8845a"/>
                  </g>
                </g>
              </g>
              <g id="Group_3814" data-name="Group 3814" transform="translate(2.141 28.557)">
                <g id="Group_3813" data-name="Group 3813">
                  <path id="Path_2258" data-name="Path 2258" d="M505.573,1033.244a3.059,3.059,0,0,1,.93.271,9.166,9.166,0,0,1,2.29,1.324,8.257,8.257,0,0,1,1.324,1.284,2.786,2.786,0,0,1,.706,2.045,2.269,2.269,0,0,1-1.619,1.75,4.379,4.379,0,0,1-2.546-.08,46.737,46.737,0,0,1-8.053-3.234,25.753,25.753,0,0,1-2.265-1.339,4,4,0,0,1-.771-.581,4.818,4.818,0,0,1,.854.445c.538.3,1.322.733,2.313,1.217a55.914,55.914,0,0,0,8.031,3.1,4.034,4.034,0,0,0,2.311.094,1.894,1.894,0,0,0,1.371-1.423,2.467,2.467,0,0,0-.6-1.784,8.421,8.421,0,0,0-1.237-1.266A13.831,13.831,0,0,0,505.573,1033.244Z" transform="translate(-495.568 -1033.24)" fill="#e8845a"/>
                </g>
              </g>
            </g>
            <g id="Group_3816" data-name="Group 3816" transform="translate(102.503 64.091)" opacity="0.3">
              <path id="Path_2259" data-name="Path 2259" d="M619.61,1031.684c-7.859-26.509-14.792-60.654-22.651-87.163-2.873,24.475.723,56.784,5.228,81.011.528,2.839.77,5.623,2.972,7.49l14.451-1.338" transform="translate(-595.93 -944.521)" fill="#030504"/>
            </g>
          </g>
          <g id="Group_3818" data-name="Group 3818" transform="translate(92.743 110.896)">
            <path id="Path_2260" data-name="Path 2260" d="M606.738,1013.486c-.1.025-.437-1.731-1.5-4.377a30.589,30.589,0,0,0-2.254-4.46,30.872,30.872,0,0,0-8.276-8.914,30.748,30.748,0,0,0-4.281-2.579c-2.56-1.259-4.286-1.72-4.253-1.823a5.671,5.671,0,0,1,1.217.288,11.526,11.526,0,0,1,1.4.461,19,19,0,0,1,1.8.742,28.034,28.034,0,0,1,4.4,2.52,29.456,29.456,0,0,1,8.408,9.056,27.912,27.912,0,0,1,2.187,4.575,18.791,18.791,0,0,1,.607,1.85,11.556,11.556,0,0,1,.356,1.425A5.632,5.632,0,0,1,606.738,1013.486Z" transform="translate(-586.171 -991.326)" fill="#1c262a"/>
          </g>
        </g>
        <path id="Path_2261" data-name="Path 2261" d="M621.727,879.193s-25.138,56.151-25.138,66.46,18.835,81.936,18.835,81.936c-.179,2.842-.912,17.119-.912,17.119l105.59.362h0l1.607-22.7-8.241-21.631L721.7,939.6s5.542-35.5,6.035-45.43c.616-12.424-41.466-26.823-40.318-28.543l-7.267-9.727L638.518,889.7l-8.225-23.759-9.857,9.316Z" transform="translate(-493.427 -855.897)" fill="#cc2041"/>
        <path id="Path_2262" data-name="Path 2262" d="M690.873,894.13c-11.426,19.337-32.344,54.576-32.344,54.576l-37.48,42.734s-2.451,21.717,2.452,28.373,13.311,11.208,13.311,11.208,9.895,0,22.462-10.508,47.243-53.943,47.243-53.943l11.91-14.361s14.2-34.884,11.546-52.637c-1.022-6.845-3.936-9.692-7.825-12.831C712.378,878.857,697.26,883.321,690.873,894.13Z" transform="translate(-493.427 -855.897)" fill="#4eb285"/>
        <g id="Group_3820" data-name="Group 3820" transform="translate(124.361 84.189)">
          <path id="Path_2263" data-name="Path 2263" d="M722.828,940.086a2.537,2.537,0,0,1-.173.4c-.135.279-.319.656-.554,1.139-.5,1-1.26,2.452-2.3,4.293-2.068,3.691-5.282,8.9-9.489,15.189-2.1,3.141-4.461,6.549-7.043,10.168-2.558,3.642-5.533,7.35-7.955,11.71-2.485,4.32-4.619,9.122-7.273,13.886a87.071,87.071,0,0,1-9.525,13.91,55.714,55.714,0,0,1-12.626,11.16,39.711,39.711,0,0,1-14.617,5.661,32.868,32.868,0,0,1-14.163-.6,27.011,27.011,0,0,1-5.989-2.429,27.334,27.334,0,0,1-4.935-3.341,23.008,23.008,0,0,1-6.183-8.093,26.091,26.091,0,0,1-2.015-7.442,33.384,33.384,0,0,1-.171-4.871c.031-.537.055-.957.073-1.266a2.529,2.529,0,0,1,.043-.429,2.7,2.7,0,0,1,.01.432c-.005.309-.012.728-.021,1.265a36.96,36.96,0,0,0,.267,4.844,26.372,26.372,0,0,0,2.078,7.346,22.848,22.848,0,0,0,6.156,7.932,27.1,27.1,0,0,0,4.889,3.269,26.667,26.667,0,0,0,5.912,2.366,32.515,32.515,0,0,0,13.969.543,39.332,39.332,0,0,0,14.425-5.619,55.422,55.422,0,0,0,12.5-11.066,87.167,87.167,0,0,0,9.475-13.82c2.646-4.734,4.791-9.535,7.3-13.876,2.452-4.387,5.458-8.108,8.02-11.723,2.595-3.606,4.966-7,7.089-10.123,4.241-6.251,7.5-11.429,9.618-15.084,1.068-1.823,1.857-3.261,2.384-4.24l.6-1.114A2.706,2.706,0,0,1,722.828,940.086Z" transform="translate(-617.788 -940.086)" fill="#1c262a"/>
        </g>
        <g id="Group_3821" data-name="Group 3821" transform="translate(122.387 133.607)">
          <path id="Path_2264" data-name="Path 2264" d="M619.173,989.511c.045.075-.533.4-1.221,1.169a6.057,6.057,0,0,0-.681,7.367c.536.88,1.044,1.307.986,1.372-.029.047-.638-.285-1.292-1.168a5.913,5.913,0,0,1,.723-7.829A3,3,0,0,1,619.173,989.511Z" transform="translate(-615.814 -989.504)" fill="#1c262a"/>
        </g>
        <g id="Group_3822" data-name="Group 3822" transform="translate(132.639 109.027)">
          <path id="Path_2265" data-name="Path 2265" d="M626.066,1000.857a2.6,2.6,0,0,1,.587.135c.19.048.419.127.7.191l.97.178a13.877,13.877,0,0,0,6.181-.575,22.822,22.822,0,0,0,7.958-4.677,60.544,60.544,0,0,0,7.457-8.655,52.254,52.254,0,0,1,7.684-8.589c1.36-1.143,2.7-2.154,3.806-3.241a10.769,10.769,0,0,0,2.5-3.446,6.274,6.274,0,0,0-.577-5.9,4.54,4.54,0,0,0-1.807-1.35,2.4,2.4,0,0,1,.582.168,3.912,3.912,0,0,1,1.384,1.056,6.424,6.424,0,0,1,.761,6.16,10.974,10.974,0,0,1-2.541,3.62c-1.124,1.126-2.462,2.159-3.8,3.3a53.563,53.563,0,0,0-7.581,8.54,58.726,58.726,0,0,1-7.555,8.7,22.679,22.679,0,0,1-8.166,4.668,13.515,13.515,0,0,1-6.322.423l-.975-.228c-.278-.081-.505-.176-.692-.241A2.737,2.737,0,0,1,626.066,1000.857Z" transform="translate(-626.066 -964.924)" fill="#1c262a"/>
        </g>
        <g id="Group_3823" data-name="Group 3823" transform="translate(166.274 32.294)">
          <path id="Path_2266" data-name="Path 2266" d="M695.958,888.191a3.871,3.871,0,0,1-.419.6l-1.281,1.665c-1.14,1.423-2.71,3.544-4.622,6.182A202.871,202.871,0,0,0,676.3,918.313c-4.714,8.762-8.619,16.89-11.605,22.693-1.485,2.906-2.707,5.248-3.587,6.847l-1.018,1.839a3.935,3.935,0,0,1-.386.624,3.9,3.9,0,0,1,.294-.673c.235-.477.544-1.1.931-1.884l3.437-6.918c2.9-5.842,6.753-14,11.476-22.776a183.256,183.256,0,0,1,13.5-21.638c1.954-2.617,3.572-4.708,4.762-6.094l1.358-1.6A3.957,3.957,0,0,1,695.958,888.191Z" transform="translate(-659.701 -888.19)" fill="#1c262a"/>
        </g>
        <g id="Group_3824" data-name="Group 3824" transform="translate(124.504 136.149)" opacity="0.3">
          <path id="Path_2267" data-name="Path 2267" d="M617.931,999.126c4.875,2.643,10.227,2.362,15.669,1.294a24.322,24.322,0,0,0,13.995-8.374,24.375,24.375,0,0,1-6.448,12.78c-3.466,3.384-8.484,5.353-13.249,4.48s-9.574-5.352-9.967-10.18" transform="translate(-617.931 -992.046)" fill="#030504"/>
        </g>
        <g id="Group_3825" data-name="Group 3825" transform="translate(166.259 87.429)" opacity="0.3">
          <path id="Path_2268" data-name="Path 2268" d="M664.034,970.269A21.5,21.5,0,0,1,667,986.388c4.129-6.323,5.1-14.327,3.988-21.8s-4.145-14.513-7.526-21.266c0,0-3.728,6.295-3.763,6.99-.18,3.634,1.158,10.479,1.861,14.05a7.829,7.829,0,0,1,2.272,7.059" transform="translate(-659.687 -943.326)" fill="#030504"/>
        </g>
        <g id="Group_3826" data-name="Group 3826" transform="translate(141.028 89.288)" opacity="0.3">
          <path id="Path_2269" data-name="Path 2269" d="M634.455,1025.287c9.938,7.746,24.685,8.112,35.558,1.746,10.472-6.13,16.918-17.166,22.9-27.722,9.264-16.34,20.568-36.547,27.186-54.126,0,0-18.553,25.312-24.144,36.222a180.467,180.467,0,0,1-12.651,21.309,54.588,54.588,0,0,1-47.888,23.326" transform="translate(-634.455 -945.185)" fill="#030504"/>
        </g>
        <g id="Group_3827" data-name="Group 3827" transform="translate(106.335 112.626)">
          <path id="Path_2270" data-name="Path 2270" d="M614.512,1044.708a1.169,1.169,0,0,1-.016-.314c0-.244.01-.544.017-.911.03-.85.072-2.01.125-3.465.14-3.042.335-7.308.571-12.438l.008.071c-1.8-6-3.9-13.274-6.07-21.135-2.882-10.418-5.314-19.9-6.95-26.79-.816-3.446-1.453-6.241-1.852-8.181-.19-.933-.341-1.676-.455-2.235a4.54,4.54,0,0,1-.124-.787,4.557,4.557,0,0,1,.227.764q.206.83.55,2.213l2.012,8.138c1.726,6.866,4.213,16.325,7.094,26.739,2.172,7.858,4.24,15.141,5.981,21.151l.011.037,0,.034c-.311,5.128-.569,9.392-.754,12.433-.1,1.452-.183,2.61-.243,3.458-.032.367-.059.665-.08.908A1.1,1.1,0,0,1,614.512,1044.708Z" transform="translate(-599.762 -968.523)" fill="#1c262a"/>
        </g>
        <g id="Group_3828" data-name="Group 3828" transform="translate(207.222 28.036)">
          <path id="Path_2271" data-name="Path 2271" d="M720.147,886.14c-.03.08-1.08-.292-2.815-.722A32.432,32.432,0,0,0,703.5,885c-1.758.326-2.828.634-2.853.553-.011-.035.246-.146.721-.318a18.746,18.746,0,0,1,2.056-.6,27.412,27.412,0,0,1,14,.419,18.352,18.352,0,0,1,2.017.717C719.911,885.98,720.16,886.106,720.147,886.14Z" transform="translate(-700.65 -883.933)" fill="#1c262a"/>
        </g>
        <g id="Group_3829" data-name="Group 3829" transform="translate(161.464 11.807)">
          <path id="Path_2272" data-name="Path 2272" d="M686.7,867.7a2.489,2.489,0,0,1-.267.518c-.224.377-.505.852-.851,1.434-.751,1.238-1.865,3.012-3.275,5.184-2.829,4.335-6.875,10.241-11.662,16.528-3.852,5.068-7.583,9.615-10.638,13.178l-.215.25-.135-.3-3.526-7.734-.945-2.149a4.051,4.051,0,0,1-.293-.773,4.179,4.179,0,0,1,.406.72l1.048,2.1,3.689,7.657-.349-.046c3-3.6,6.7-8.163,10.543-13.222,4.779-6.277,8.866-12.139,11.771-16.417l3.41-5.089.933-1.381A2.484,2.484,0,0,1,686.7,867.7Z" transform="translate(-654.892 -867.704)" fill="#1c262a"/>
        </g>
        <g id="Group_3830" data-name="Group 3830" transform="translate(217.555 149.925)">
          <path id="Path_2273" data-name="Path 2273" d="M711.008,1028.95c-.143-.016.315-5.207,1.023-11.592s1.4-11.552,1.541-11.536-.315,5.2-1.023,11.593S711.151,1028.966,711.008,1028.95Z" transform="translate(-710.982 -1005.822)" fill="#1c262a"/>
        </g>
        <g id="Group_3831" data-name="Group 3831" transform="translate(145.168 171.692)">
          <path id="Path_2274" data-name="Path 2274" d="M638.631,1027.589a148.659,148.659,0,0,1,1.865,17.481,148.745,148.745,0,0,1-1.865-17.481Z" transform="translate(-638.595 -1027.589)" fill="#1c262a"/>
        </g>
        <path id="Path_2275" data-name="Path 2275" d="M692.041,913.374a1.277,1.277,0,0,0-1.938-.77l-.067.056a1.213,1.213,0,1,0,2.005.714Z" transform="translate(-493.427 -855.897)" fill="#fff"/>
        <path id="Path_2276" data-name="Path 2276" d="M681.614,887.959a1.277,1.277,0,0,0-1.938-.77l-.068.056a1.213,1.213,0,1,0,2.006.714Z" transform="translate(-493.427 -855.897)" fill="#fff"/>
        <path id="Path_2277" data-name="Path 2277" d="M657.685,908.424a1.277,1.277,0,0,0-1.939-.77l-.067.055a1.213,1.213,0,1,0,2.006.715Z" transform="translate(-493.427 -855.897)" fill="#fff"/>
        <path id="Path_2278" data-name="Path 2278" d="M631.817,898.147a1.278,1.278,0,0,0-1.939-.77l-.067.056a1.213,1.213,0,1,0,2.006.714Z" transform="translate(-493.427 -855.897)" fill="#fff"/>
        <path id="Path_2279" data-name="Path 2279" d="M627.241,888.017a1.278,1.278,0,0,0-1.939-.77l-.067.056a1.213,1.213,0,1,0,2.006.714Z" transform="translate(-493.427 -855.897)" fill="#fff"/>
        <path id="Path_2280" data-name="Path 2280" d="M629.228,876.312a1.278,1.278,0,0,0-1.939-.77l-.067.056a1.213,1.213,0,1,0,2.006.714Z" transform="translate(-493.427 -855.897)" fill="#fff"/>
        <path id="Path_2281" data-name="Path 2281" d="M614.9,892.412a1.278,1.278,0,0,0-1.939-.77l-.067.056a1.213,1.213,0,1,0,2.006.714Z" transform="translate(-493.427 -855.897)" fill="#fff"/>
        <path id="Path_2282" data-name="Path 2282" d="M648.087,897.055a1.278,1.278,0,0,0-1.939-.77l-.067.056a1.213,1.213,0,1,0,2.006.714Z" transform="translate(-493.427 -855.897)" fill="#fff"/>
        <path id="Path_2283" data-name="Path 2283" d="M619.992,917.921a1.278,1.278,0,0,0-1.939-.77l-.067.056a1.213,1.213,0,1,0,2.006.714Z" transform="translate(-493.427 -855.897)" fill="#fff"/>
        <path id="Path_2284" data-name="Path 2284" d="M594.273,977.942a1.277,1.277,0,0,0-1.938-.77l-.067.056a1.213,1.213,0,1,0,2.005.714Z" transform="translate(-493.427 -855.897)" fill="#fff"/>
        <path id="Path_2285" data-name="Path 2285" d="M603.45,943.326a1.278,1.278,0,0,0-1.939-.77l-.067.056a1.213,1.213,0,1,0,2.006.714Z" transform="translate(-493.427 -855.897)" fill="#fff"/>
        <path id="Path_2286" data-name="Path 2286" d="M671.088,882.541a1.277,1.277,0,0,0-1.939-.77l-.067.055a1.213,1.213,0,1,0,2.006.715Z" transform="translate(-493.427 -855.897)" fill="#fff"/>
        <path id="Path_2287" data-name="Path 2287" d="M703.368,951.469a1.278,1.278,0,0,0-1.939-.77l-.067.056a1.213,1.213,0,1,0,2.006.714Z" transform="translate(-493.427 -855.897)" fill="#fff"/>
        <path id="Path_2288" data-name="Path 2288" d="M715.946,892.152a1.277,1.277,0,0,0-1.938-.771l-.068.056a1.213,1.213,0,1,0,2.006.715Z" transform="translate(-493.427 -855.897)" fill="#fff"/>
        <path id="Path_2289" data-name="Path 2289" d="M711.008,931a1.278,1.278,0,0,0-1.939-.77l-.067.056a1.213,1.213,0,1,0,2.006.714Z" transform="translate(-493.427 -855.897)" fill="#fff"/>
        <path id="Path_2290" data-name="Path 2290" d="M682.8,959.046a1.278,1.278,0,0,0-1.939-.77l-.067.056a1.213,1.213,0,1,0,2.006.714Z" transform="translate(-493.427 -855.897)" fill="#fff"/>
        <path id="Path_2291" data-name="Path 2291" d="M683.988,935.7a1.278,1.278,0,0,0-1.939-.77l-.067.056a1.213,1.213,0,1,0,2.006.714Z" transform="translate(-493.427 -855.897)" fill="#fff"/>
        <path id="Path_2292" data-name="Path 2292" d="M701.006,892.354a1.277,1.277,0,0,0-1.938-.77l-.067.056a1.213,1.213,0,1,0,2.005.714Z" transform="translate(-493.427 -855.897)" fill="#fff"/>
        <path id="Path_2293" data-name="Path 2293" d="M678.1,869.731a1.277,1.277,0,0,0-1.938-.77l-.068.056a1.213,1.213,0,1,0,2.006.714Z" transform="translate(-493.427 -855.897)" fill="#fff"/>
        <path id="Path_2294" data-name="Path 2294" d="M677.266,906.2a1.277,1.277,0,0,0-1.939-.77l-.067.055a1.213,1.213,0,1,0,2.006.715Z" transform="translate(-493.427 -855.897)" fill="#fff"/>
        <path id="Path_2295" data-name="Path 2295" d="M648.02,1017.45a1.278,1.278,0,0,0-1.939-.77l-.067.056a1.213,1.213,0,1,0,2.006.714Z" transform="translate(-493.427 -855.897)" fill="#fff"/>
        <path id="Path_2296" data-name="Path 2296" d="M614.472,999.156a1.278,1.278,0,0,0-1.939-.771l-.067.056a1.213,1.213,0,1,0,2.006.715Z" transform="translate(-493.427 -855.897)" fill="#fff"/>
        <path id="Path_2297" data-name="Path 2297" d="M587.346,1008.122a1.278,1.278,0,0,0-1.939-.77l-.067.056a1.213,1.213,0,1,0,2.006.714Z" transform="translate(-493.427 -855.897)" fill="#fff"/>
        <path id="Path_2298" data-name="Path 2298" d="M584.442,1023.572a1.277,1.277,0,0,0-1.938-.771l-.067.056a1.213,1.213,0,1,0,2.005.715Z" transform="translate(-493.427 -855.897)" fill="#fff"/>
        <path id="Path_2299" data-name="Path 2299" d="M609.875,1028.747a1.278,1.278,0,0,0-1.939-.77l-.067.056a1.213,1.213,0,1,0,2.006.714Z" transform="translate(-493.427 -855.897)" fill="#fff"/>
        <path id="Path_2300" data-name="Path 2300" d="M601.371,994.149a1.277,1.277,0,0,0-1.939-.77l-.067.055a1.213,1.213,0,1,0,2.006.715Z" transform="translate(-493.427 -855.897)" fill="#fff"/>
        <path id="Path_2301" data-name="Path 2301" d="M632.574,1002.94a1.278,1.278,0,0,0-1.939-.77l-.067.056a1.213,1.213,0,1,0,2.006.714Z" transform="translate(-493.427 -855.897)" fill="#fff"/>
        <path id="Path_2302" data-name="Path 2302" d="M706.747,994.091a1.277,1.277,0,0,0-1.939-.77l-.067.055a1.213,1.213,0,1,0,2.006.715Z" transform="translate(-493.427 -855.897)" fill="#fff"/>
        <path id="Path_2303" data-name="Path 2303" d="M660.853,1038.067a1.277,1.277,0,0,0-1.938-.77l-.068.056a1.213,1.213,0,1,0,2.006.714Z" transform="translate(-493.427 -855.897)" fill="#fff"/>
        <path id="Path_2304" data-name="Path 2304" d="M680.427,1013.587a1.277,1.277,0,0,0-1.938-.77l-.068.056a1.213,1.213,0,1,0,2.006.714Z" transform="translate(-493.427 -855.897)" fill="#fff"/>
        <path id="Path_2305" data-name="Path 2305" d="M692.054,1033.5a1.277,1.277,0,0,0-1.939-.77l-.067.055a1.213,1.213,0,1,0,2.006.715Z" transform="translate(-493.427 -855.897)" fill="#fff"/>
        <path id="Path_2306" data-name="Path 2306" d="M659.7,929.235a1.276,1.276,0,0,0-1.938-.77l-.068.055a1.213,1.213,0,1,0,2.006.715Z" transform="translate(-493.427 -855.897)" fill="#fff"/>
        <path id="Path_2307" data-name="Path 2307" d="M686.028,980.061a1.277,1.277,0,0,0-1.939-.77l-.067.055a1.213,1.213,0,1,0,2.006.715Z" transform="translate(-493.427 -855.897)" fill="#fff"/>
        <path id="Path_2308" data-name="Path 2308" d="M677.491,999.313a1.278,1.278,0,0,0-1.939-.77l-.067.056a1.213,1.213,0,1,0,2.006.714Z" transform="translate(-493.427 -855.897)" fill="#fff"/>
        <path id="Path_2309" data-name="Path 2309" d="M705.56,1014.776a1.278,1.278,0,0,0-1.939-.771l-.067.056a1.213,1.213,0,1,0,2.006.715Z" transform="translate(-493.427 -855.897)" fill="#fff"/>
        <path id="Path_2310" data-name="Path 2310" d="M628.752,1037.1a1.276,1.276,0,0,0-1.938-.77l-.067.055a1.213,1.213,0,1,0,2.005.715Z" transform="translate(-493.427 -855.897)" fill="#fff"/>
        <path id="Path_2311" data-name="Path 2311" d="M564.75,1031.259a1.278,1.278,0,0,0-1.939-.77l-.067.056a1.213,1.213,0,1,0,2.006.714Z" transform="translate(-493.427 -855.897)" fill="#fff"/>
        <path id="Path_2312" data-name="Path 2312" d="M621.112,1020.747a1.278,1.278,0,0,0-1.939-.77l-.067.056a1.213,1.213,0,1,0,2.006.714Z" transform="translate(-493.427 -855.897)" fill="#fff"/>
        <path id="Path_2313" data-name="Path 2313" d="M567.124,1009.31a1.278,1.278,0,0,0-1.939-.77l-.067.056a1.213,1.213,0,1,0,2.006.714Z" transform="translate(-493.427 -855.897)" fill="#fff"/>
        <path id="Path_2314" data-name="Path 2314" d="M657.329,973.014a1.276,1.276,0,0,0-1.938-.77l-.067.055a1.213,1.213,0,1,0,2.005.715Z" transform="translate(-493.427 -855.897)" fill="#fff"/>
        <path id="Path_2315" data-name="Path 2315" d="M638.451,917.921a1.278,1.278,0,0,0-1.939-.77l-.067.056a1.213,1.213,0,1,0,2.006.714Z" transform="translate(-493.427 -855.897)" fill="#fff"/>
        <path id="Path_2316" data-name="Path 2316" d="M633.735,965.7a1.278,1.278,0,0,0-1.939-.771l-.067.056a1.213,1.213,0,1,0,2.006.715Z" transform="translate(-493.427 -855.897)" fill="#fff"/>
        <path id="Path_2317" data-name="Path 2317" d="M626.054,950.113a1.278,1.278,0,0,0-1.939-.77l-.067.056a1.213,1.213,0,1,0,2.006.714Z" transform="translate(-493.427 -855.897)" fill="#fff"/>
        <path id="Path_2318" data-name="Path 2318" d="M660.02,999.1a1.278,1.278,0,0,0-1.939-.771l-.067.056a1.213,1.213,0,1,0,2.006.715Z" transform="translate(-493.427 -855.897)" fill="#fff"/>
        <path id="Path_2319" data-name="Path 2319" d="M636.077,989.486a1.278,1.278,0,0,0-1.939-.77l-.067.056a1.213,1.213,0,1,0,2.006.714Z" transform="translate(-493.427 -855.897)" fill="#fff"/>
        <path id="Path_2320" data-name="Path 2320" d="M646.327,936.731a1.278,1.278,0,0,0-1.939-.77l-.067.056a1.213,1.213,0,1,0,2.006.714Z" transform="translate(-493.427 -855.897)" fill="#fff"/>
        <path id="Path_2321" data-name="Path 2321" d="M609.875,974.086a1.277,1.277,0,0,0-1.939-.77l-.067.055a1.213,1.213,0,1,0,2.006.715Z" transform="translate(-493.427 -855.897)" fill="#fff"/>
        <path id="Path_2322" data-name="Path 2322" d="M666.138,956.94a1.278,1.278,0,0,0-1.939-.77l-.067.056a1.213,1.213,0,1,0,2.006.714Z" transform="translate(-493.427 -855.897)" fill="#fff"/>
        <path id="Path_2323" data-name="Path 2323" d="M718.32,912.186a1.278,1.278,0,0,0-1.939-.77l-.067.056a1.213,1.213,0,1,0,2.006.714Z" transform="translate(-493.427 -855.897)" fill="#fff"/>
        <path id="Path_2324" data-name="Path 2324" d="M697.133,878.3a1.277,1.277,0,0,0-1.939-.77l-.067.055a1.213,1.213,0,1,0,2.006.715Z" transform="translate(-493.427 -855.897)" fill="#fff"/>
        <path id="Path_2325" data-name="Path 2325" d="M656.068,882.541a1.277,1.277,0,0,0-1.939-.77l-.067.055a1.213,1.213,0,1,0,2.006.715Z" transform="translate(-493.427 -855.897)" fill="#fff"/>
      </g>
      <g id="Group_3980" data-name="Group 3980" transform="translate(89.841)">
        <g id="Group_3966" data-name="Group 3966" transform="translate(15.824)">
          <g id="Group_3965" data-name="Group 3965">
            <g id="Group_3834" data-name="Group 3834" transform="translate(0 16.627)">
              <g id="Group_3833" data-name="Group 3833">
                <path id="Path_2326" data-name="Path 2326" d="M614.184,760.894c-7.876,5.012-11.02,15.513-9.518,21.72.757,3.128,2.177,6.276,1.557,9.434-.535,2.729-2.5,4.912-3.966,7.274a21.92,21.92,0,0,0,27.392,31.659" transform="translate(-599.092 -760.894)" fill="#1c262a"/>
              </g>
            </g>
            <g id="Group_3941" data-name="Group 3941" transform="translate(5.85)">
              <g id="Group_3837" data-name="Group 3837">
                <g id="Group_3836" data-name="Group 3836">
                  <g id="Group_3835" data-name="Group 3835">
                    <path id="Path_2327" data-name="Path 2327" d="M609.523,801.881c-19.159-42.14,26.415-63.311,51.283-56.287,23.371,6.6,33.339,18.231,37.185,33.862s3.663,32.575-2.466,47.468c-3.022,7.343-8.464,14.8-16.352,15.722" transform="translate(-604.942 -744.267)" fill="#0f143d"/>
                  </g>
                </g>
              </g>
              <g id="Group_3940" data-name="Group 3940" transform="translate(4.402 13.88)">
                <g id="Group_3939" data-name="Group 3939">
                  <g id="Group_3938" data-name="Group 3938">
                    <g id="Group_3937" data-name="Group 3937">
                      <g id="Group_3918" data-name="Group 3918">
                        <g id="Group_3917" data-name="Group 3917">
                          <g id="Group_3916" data-name="Group 3916">
                            <g id="Group_3846" data-name="Group 3846">
                              <g id="Group_3845" data-name="Group 3845">
                                <g id="Group_3844" data-name="Group 3844">
                                  <g id="Group_3843" data-name="Group 3843">
                                    <g id="Group_3842" data-name="Group 3842">
                                      <g id="Group_3841" data-name="Group 3841">
                                        <g id="Group_3840" data-name="Group 3840">
                                          <g id="Group_3839" data-name="Group 3839">
                                            <g id="Group_3838" data-name="Group 3838">
                                              <path id="Path_2328" data-name="Path 2328" d="M631.971,904.793c-.33-20.134-.564-47.791-.572-47.676,0,0-17.306-2.874-20.892-25.454-1.783-11.229-1.219-29.641-.271-44.691.854-13.546,9.829-30.167,23.327-28.739l42.147,10.653a7.944,7.944,0,0,1,7.106,8.055h0l-2.746,87.178" transform="translate(-609.344 -758.147)" fill="#fbad8b"/>
                                            </g>
                                          </g>
                                        </g>
                                      </g>
                                    </g>
                                  </g>
                                </g>
                              </g>
                            </g>
                            <g id="Group_3915" data-name="Group 3915" transform="translate(22.055 90.903)">
                              <g id="Group_3914" data-name="Group 3914">
                                <g id="Group_3913" data-name="Group 3913">
                                  <g id="Group_3912" data-name="Group 3912">
                                    <g id="Group_3911" data-name="Group 3911">
                                      <g id="Group_3910" data-name="Group 3910">
                                        <g id="Group_3909" data-name="Group 3909">
                                          <g id="Group_3908" data-name="Group 3908">
                                            <g id="Group_3907" data-name="Group 3907">
                                              <path id="Path_2334" data-name="Path 2334" d="M631.4,857.117a57.449,57.449,0,0,0,30.241-8.067S654,864.759,631.4,862.646Z" transform="translate(-631.399 -849.05)" fill="#e8845a"/>
                                            </g>
                                          </g>
                                        </g>
                                      </g>
                                    </g>
                                  </g>
                                </g>
                              </g>
                            </g>
                          </g>
                        </g>
                      </g>
                      <g id="Group_3927" data-name="Group 3927" transform="translate(34.098 31.33)">
                        <g id="Group_3926" data-name="Group 3926">
                          <g id="Group_3925" data-name="Group 3925">
                            <g id="Group_3924" data-name="Group 3924">
                              <g id="Group_3923" data-name="Group 3923">
                                <g id="Group_3922" data-name="Group 3922">
                                  <g id="Group_3921" data-name="Group 3921">
                                    <g id="Group_3920" data-name="Group 3920">
                                      <g id="Group_3919" data-name="Group 3919">
                                        <path id="Path_2335" data-name="Path 2335" d="M643.459,791.814c.308.847,3.419.445,7.075.886,3.665.367,6.613,1.437,7.1.677.217-.363-.3-1.16-1.489-1.98a12.387,12.387,0,0,0-10.8-1.192C644,790.746,643.327,791.412,643.459,791.814Z" transform="translate(-643.443 -789.477)" fill="#1c262a"/>
                                      </g>
                                    </g>
                                  </g>
                                </g>
                              </g>
                            </g>
                          </g>
                        </g>
                      </g>
                    </g>
                  </g>
                </g>
              </g>
            </g>
            <g id="Group_3959" data-name="Group 3959" transform="translate(78.584 61.286)">
              <g id="Group_3949" data-name="Group 3949">
                <g id="Group_3948" data-name="Group 3948">
                  <g id="Group_3947" data-name="Group 3947">
                    <g id="Group_3946" data-name="Group 3946">
                      <g id="Group_3945" data-name="Group 3945">
                        <g id="Group_3944" data-name="Group 3944">
                          <g id="Group_3943" data-name="Group 3943">
                            <g id="Group_3942" data-name="Group 3942">
                              <path id="Path_2337" data-name="Path 2337" d="M678.944,806.667c.33-.16,12.086-5.359,12.224,8.16s-13.463,10.868-13.491,10.481S678.944,806.667,678.944,806.667Z" transform="translate(-677.677 -805.553)" fill="#fbad8b"/>
                            </g>
                          </g>
                        </g>
                      </g>
                    </g>
                  </g>
                </g>
              </g>
              <g id="Group_3958" data-name="Group 3958" transform="translate(4.066 3.87)">
                <g id="Group_3957" data-name="Group 3957">
                  <g id="Group_3956" data-name="Group 3956">
                    <g id="Group_3955" data-name="Group 3955">
                      <g id="Group_3954" data-name="Group 3954">
                        <g id="Group_3953" data-name="Group 3953">
                          <g id="Group_3952" data-name="Group 3952">
                            <g id="Group_3951" data-name="Group 3951">
                              <g id="Group_3950" data-name="Group 3950">
                                <path id="Path_2338" data-name="Path 2338" d="M681.755,820.144c.059-.044.237.163.637.341a2.351,2.351,0,0,0,1.76.018c1.423-.538,2.6-2.818,2.643-5.255a7.778,7.778,0,0,0-.693-3.366,2.724,2.724,0,0,0-1.79-1.789,1.2,1.2,0,0,0-1.383.66c-.178.379-.089.649-.16.672-.038.034-.293-.223-.19-.783a1.511,1.511,0,0,1,.524-.852,1.778,1.778,0,0,1,1.3-.358,3.31,3.31,0,0,1,2.481,2.071,8.008,8.008,0,0,1,.855,3.76c-.059,2.725-1.428,5.288-3.376,5.873a2.522,2.522,0,0,1-2.158-.336C681.782,820.471,681.708,820.169,681.755,820.144Z" transform="translate(-681.743 -809.423)" fill="#e8845a"/>
                              </g>
                            </g>
                          </g>
                        </g>
                      </g>
                    </g>
                  </g>
                </g>
              </g>
            </g>
            <g id="Group_3961" data-name="Group 3961" transform="translate(21.265 7.298)">
              <g id="Group_3960" data-name="Group 3960">
                <path id="Path_2339" data-name="Path 2339" d="M629.061,751.565c-7.52,3.887-10.617,19.274-7.5,27.147s11.5,11.719,19.767,13.531,16.378,2.025,24.534-.243c.568,5.485,3.855,11.115,9.177,12.562,7.045,1.916,14.146-4.535,15.714-11.666s-.782-14.475-3.1-21.4" transform="translate(-620.357 -751.565)" fill="#0f143d"/>
              </g>
            </g>
            <g id="Group_3964" data-name="Group 3964" transform="translate(65.42 46.573)">
              <g id="Group_3963" data-name="Group 3963">
                <g id="Group_3962" data-name="Group 3962">
                  <path id="Path_2340" data-name="Path 2340" d="M688.709,800.619c.032.042-.337.393-1.042.985a36.6,36.6,0,0,1-3.118,2.352,19.067,19.067,0,0,1-5.256,2.544,11.382,11.382,0,0,1-7.174-.1,11.129,11.129,0,0,1-5.43-4.694,15.052,15.052,0,0,1-1.946-5.52,20.024,20.024,0,0,1-.212-3.915,4.447,4.447,0,0,1,.176-1.426c.149,0-.012,2.055.58,5.245a15.377,15.377,0,0,0,2.013,5.235,10.662,10.662,0,0,0,5.1,4.344,10.938,10.938,0,0,0,6.7.143,20.03,20.03,0,0,0,5.152-2.317C687.013,801.763,688.629,800.507,688.709,800.619Z" transform="translate(-664.512 -790.84)" fill="#1c262a"/>
                </g>
              </g>
            </g>
          </g>
        </g>
        <path id="Path_2343" data-name="Path 2343" d="M694.1,797.414c-1.385-.1-12.55,1.347-11.67,22.1.821,19.385,14.421,15.116,18.76,7.818C705.3,820.421,707.679,798.367,694.1,797.414Z" transform="translate(-583.268 -744.267)" fill="#ca1f41"/>
        <g id="Group_3973" data-name="Group 3973" transform="translate(103.234 26.942)">
          <path id="Path_2344" data-name="Path 2344" d="M701.006,799.866a2.73,2.73,0,0,1-.052-.546c-.017-.405-.038-.928-.066-1.581-.04-1.433-.095-3.43-.165-5.912-.1-5.1-.244-12.178-.408-20.355l.25.246-5.756.008.258-.265c.042,1.545.087,3.175.132,4.829.193,7.789.373,15.043.523,21.114l.005.178-.173.04a10.47,10.47,0,0,0-5.929,3.818,13.958,13.958,0,0,0-2.368,5.007,20.7,20.7,0,0,0-.61,3.544c-.037.414-.057.733-.068.947a1.363,1.363,0,0,1-.032.326,1.061,1.061,0,0,1-.036-.326c-.011-.216-.013-.537,0-.955a18.427,18.427,0,0,1,.5-3.6,13.956,13.956,0,0,1,2.33-5.159,10.786,10.786,0,0,1,6.112-4.029l-.168.218c-.175-6.07-.383-13.323-.607-21.111-.043-1.654-.086-3.284-.127-4.829l-.007-.266h.265l5.756.007h.248l0,.246c.09,8.178.168,15.26.224,20.358.008,2.483.014,4.481.018,5.914-.006.654-.012,1.177-.016,1.582A2.6,2.6,0,0,1,701.006,799.866Z" transform="translate(-686.502 -771.209)" fill="#344952"/>
        </g>
        <path id="Path_2345" data-name="Path 2345" d="M694.1,771.468s-5.838-13.666-19.753-20.409a82.535,82.535,0,0,0-16.668-6.18s8.118-1.928,21.254,3.916c5.968,2.656,11.981,6.114,15.958,11.3,2.525,3.292,5.679,9.726,5.673,11.376Z" transform="translate(-583.268 -744.267)" fill="#ca1f41"/>
        <g id="Group_3974" data-name="Group 3974" transform="translate(74.814 88.778)">
          <path id="Path_2346" data-name="Path 2346" d="M658.082,936.934a2.1,2.1,0,0,1,.248-.274c.167-.178.432-.427.755-.777a37.544,37.544,0,0,0,2.7-3.2,52.642,52.642,0,0,0,3.647-5.6c1.3-2.27,2.658-4.944,4.132-7.934,2.949-5.977,6.363-13.223,9.894-21.525,1.769-4.149,3.569-8.561,5.361-13.2l1.346-3.524a20.388,20.388,0,0,1,1.606-3.545,7.318,7.318,0,0,1,2.9-2.76,4.066,4.066,0,0,1,2.034-.517,2.047,2.047,0,0,1,1.062.385,2.283,2.283,0,0,1,.675.9l.033.067-.018.078a3.515,3.515,0,0,1-.537,1.333,2.078,2.078,0,0,1-1.248.818,4.444,4.444,0,0,1-2.79-.512,4.389,4.389,0,0,1-2.47-4.845,3.915,3.915,0,0,1,1.623-2.442,4.56,4.56,0,0,1,2.842-.81,3.139,3.139,0,0,1,2.624,1.447,1.509,1.509,0,0,1-.1,1.63,2.915,2.915,0,0,1-1.266.927,4.177,4.177,0,0,1-4.793-1.359,3.535,3.535,0,0,1-.649-2.522,4.314,4.314,0,0,1,1.038-2.357,3.617,3.617,0,0,1,2.252-1.245,2.9,2.9,0,0,1,2.432.836,1.811,1.811,0,0,1,.478,1.277,1.724,1.724,0,0,1-.576,1.232,2.827,2.827,0,0,1-2.445.66A3.09,3.09,0,0,1,688.925,868a6.47,6.47,0,0,1-.732-2.308,8.2,8.2,0,0,1,.53-4.664,3.491,3.491,0,0,1,1.7-1.684,3.171,3.171,0,0,1,2.375.075,2.254,2.254,0,0,1,1.465,1.851A2.062,2.062,0,0,1,693,863.228a2.545,2.545,0,0,1-2.3-.034,3.125,3.125,0,0,1-1.422-1.755,4.357,4.357,0,0,1-.136-2.188,9.8,9.8,0,0,1,.462-2.076,3.807,3.807,0,0,1,1.213-1.767,4.869,4.869,0,0,1,1.883-.936,2.085,2.085,0,0,1,1.1-.012,2.383,2.383,0,0,1,.915.583,2.661,2.661,0,0,1,.588.886,1.461,1.461,0,0,1,.034,1.106,1.8,1.8,0,0,1-1.788.989,3.314,3.314,0,0,1-1.878-.63,5.111,5.111,0,0,1-2.008-3.147,5.322,5.322,0,0,1,.42-3.562,4.13,4.13,0,0,1,1.124-1.375,3.741,3.741,0,0,1,1.6-.689,2.615,2.615,0,0,1,1.7.239,1.787,1.787,0,0,1,.918,1.419,2.5,2.5,0,0,1-1.885,2.4,2.749,2.749,0,0,1-2.719-1.022,4.4,4.4,0,0,1-1.026-2.559c-.085-1.82.632-3.352.98-4.787q.61-2.157,1.114-3.937l1.559-5.441c.178-.6.317-1.073.417-1.411.1-.317.16-.476.16-.476s-.028.169-.108.491c-.089.342-.211.815-.369,1.425-.34,1.273-.833,3.111-1.464,5.467q-.483,1.782-1.07,3.947c-.341,1.449-1.029,2.991-.928,4.7a4.089,4.089,0,0,0,.971,2.375,2.433,2.433,0,0,0,2.4.906,2.175,2.175,0,0,0,1.622-2.053,1.43,1.43,0,0,0-.745-1.131,2.258,2.258,0,0,0-1.463-.19,3.384,3.384,0,0,0-1.433.626,3.777,3.777,0,0,0-1.008,1.252,4.928,4.928,0,0,0-.37,3.3,4.7,4.7,0,0,0,1.851,2.889,2.884,2.884,0,0,0,1.644.549,1.38,1.38,0,0,0,1.384-.722,1.55,1.55,0,0,0-.531-1.524,1.942,1.942,0,0,0-.737-.471,1.649,1.649,0,0,0-.867.024,3.779,3.779,0,0,0-2.767,2.425,9.311,9.311,0,0,0-.433,1.978,3.89,3.89,0,0,0,.119,1.975,2.661,2.661,0,0,0,1.205,1.493,2.073,2.073,0,0,0,1.87.017,1.577,1.577,0,0,0,.989-1.494,1.774,1.774,0,0,0-1.175-1.428,2.684,2.684,0,0,0-2-.066,3.019,3.019,0,0,0-1.444,1.451,7.74,7.74,0,0,0-.475,4.368,5.994,5.994,0,0,0,.672,2.125,2.6,2.6,0,0,0,1.612,1.319,2.323,2.323,0,0,0,1.987-.531,1.247,1.247,0,0,0,.069-1.794,2.4,2.4,0,0,0-1.993-.666,3.092,3.092,0,0,0-1.917,1.072,3.446,3.446,0,0,0-.361,4.23,3.664,3.664,0,0,0,4.177,1.184,2.4,2.4,0,0,0,1.04-.748.978.978,0,0,0,.067-1.083,2.641,2.641,0,0,0-2.2-1.171,3.747,3.747,0,0,0-3.927,2.836,3.872,3.872,0,0,0,2.186,4.28,3.981,3.981,0,0,0,2.453.477,1.967,1.967,0,0,0,1.4-1.748l.016.145a1.491,1.491,0,0,0-1.3-.977,3.581,3.581,0,0,0-1.771.46,6.821,6.821,0,0,0-2.712,2.574,20.069,20.069,0,0,0-1.571,3.457l-1.355,3.526c-1.8,4.645-3.619,9.057-5.4,13.2-3.563,8.3-7.015,15.535-10.007,21.5-1.494,2.981-2.872,5.651-4.2,7.917a50.74,50.74,0,0,1-3.728,5.577A26.814,26.814,0,0,1,658.082,936.934Z" transform="translate(-658.082 -833.045)" fill="#fff"/>
        </g>
        <g id="Group_3975" data-name="Group 3975" transform="translate(41.612 13.119)">
          <path id="Path_2347" data-name="Path 2347" d="M706.221,787.681a13.032,13.032,0,0,0-.91-3.7,14.533,14.533,0,0,0-7.178-7.19,19.274,19.274,0,0,0-6.919-1.692,32.664,32.664,0,0,0-8.207.627c-5.733,1.054-11.751,3.529-18.492,4.544a37.544,37.544,0,0,1-9.9-.01,39.958,39.958,0,0,1-8.9-2.414,39.3,39.3,0,0,1-12.96-8.56,34.884,34.884,0,0,1-6.279-8.4,11.264,11.264,0,0,1-.737-1.474l-.485-1.106-.288-.684a.909.909,0,0,1-.082-.239.925.925,0,0,1,.131.219l.335.661c.149.3.324.664.528,1.081a11.956,11.956,0,0,0,.775,1.445,36.249,36.249,0,0,0,6.361,8.234,39.021,39.021,0,0,0,21.673,10.731,37.355,37.355,0,0,0,9.757,0c6.65-1,12.679-3.458,18.477-4.5a32.8,32.8,0,0,1,8.326-.586,19.481,19.481,0,0,1,7.049,1.792,14.55,14.55,0,0,1,7.2,7.444,10.745,10.745,0,0,1,.7,2.777l.033.745A.907.907,0,0,1,706.221,787.681Z" transform="translate(-624.88 -757.386)" fill="#344952"/>
        </g>
        <g id="Group_3976" data-name="Group 3976" transform="translate(40.77 10.33)">
          <path id="Path_2348" data-name="Path 2348" d="M691.13,766.13a3.79,3.79,0,0,1-.718.128c-.471.063-1.166.167-2.056.322-1.783.3-4.336.864-7.476,1.646a79.273,79.273,0,0,1-11.183,2.166,56.252,56.252,0,0,1-13.945-.3,59.055,59.055,0,0,1-13.473-3.623,57.536,57.536,0,0,1-10.112-5.251c-1.343-.911-2.549-1.752-3.561-2.55-.992-.823-1.883-1.487-2.541-2.113l-1.521-1.431a3.661,3.661,0,0,1-.505-.523,3.862,3.862,0,0,1,.576.447L626.2,756.4c.676.6,1.582,1.239,2.586,2.036,1.023.771,2.237,1.587,3.584,2.472a60.316,60.316,0,0,0,23.459,8.668,57.128,57.128,0,0,0,13.823.34,83.311,83.311,0,0,0,11.145-2.047c3.153-.736,5.731-1.252,7.531-1.488.9-.124,1.6-.2,2.076-.226A3.969,3.969,0,0,1,691.13,766.13Z" transform="translate(-624.038 -754.597)" fill="#344952"/>
        </g>
        <g id="Group_3977" data-name="Group 3977" transform="translate(103.025 53.922)">
          <path id="Path_2349" data-name="Path 2349" d="M692.617,833.132a1.2,1.2,0,0,1-.391-.114,6.083,6.083,0,0,1-1.037-.537,9.109,9.109,0,0,1-2.927-3.121,15,15,0,0,1-1.8-6.087,44.26,44.26,0,0,1-.009-7.756,47.2,47.2,0,0,1,1.284-7.648,21.967,21.967,0,0,1,2.232-5.937,9.16,9.16,0,0,1,2.944-3.1,6.117,6.117,0,0,1,1.043-.527,1.112,1.112,0,0,1,.393-.108c.019.044-.512.231-1.323.8a9.537,9.537,0,0,0-2.739,3.122,22.691,22.691,0,0,0-2.084,5.867,50.049,50.049,0,0,0-1.232,7.575,46.828,46.828,0,0,0-.031,7.666,15.112,15.112,0,0,0,1.637,5.952,9.477,9.477,0,0,0,2.72,3.135C692.107,832.9,692.639,833.084,692.617,833.132Z" transform="translate(-686.293 -798.189)" fill="#1c262a"/>
        </g>
        <g id="Group_3979" data-name="Group 3979" transform="translate(51.323 72.314)">
          <rect id="Rectangle_1608" data-name="Rectangle 1608" width="16.156" height="6.089" rx="2.852" transform="translate(0 16.01) rotate(-11.103)" fill="#ca1f41"/>
          <path id="Path_2350" data-name="Path 2350" d="M649.6,831.569l47.446-14.884a2.237,2.237,0,0,1,2.8,1.451h0a2.237,2.237,0,0,1-1.547,2.843l-48.517,13.108Z" transform="translate(-634.591 -816.581)" fill="#ca1f41"/>
          <g id="Group_3978" data-name="Group 3978" transform="translate(41.5 0.042)">
            <path id="Path_2351" data-name="Path 2351" d="M684.673,825.026a10.3,10.3,0,0,1,1.571-.552l4.339-1.322c1.819-.562,4.055-1.155,6.419-1.93a4.33,4.33,0,0,0,1.554-.956,2.381,2.381,0,0,0,.668-1.65,1.437,1.437,0,0,0-.98-1.359,3.659,3.659,0,0,0-1.984.06l-14.225,4.577-4.333,1.338a10.225,10.225,0,0,1-1.611.424,10.219,10.219,0,0,1,1.548-.616l4.281-1.5c3.633-1.234,8.613-2.939,14.213-4.732a4.11,4.11,0,0,1,2.282-.044,1.956,1.956,0,0,1,1.319,1.835,2.866,2.866,0,0,1-.823,2.011,4.777,4.777,0,0,1-1.737,1.056c-2.453.777-4.64,1.313-6.491,1.836-1.784.474-3.262.865-4.383,1.162A10.026,10.026,0,0,1,684.673,825.026Z" transform="translate(-676.091 -816.623)" fill="#1c262a"/>
          </g>
        </g>
        <path id="Path_2352" data-name="Path 2352" d="M607.091,788.684c1.625,5.7-4.171,10.592-6.212,16.159-1.973,5.383-.292,11.414,2.136,16.607s5.626,10.12,6.869,15.717c3.067,13.8-9.41,28.665-7.034,42.6.866,5.075,2.909,10.373,4.682,15.207a20.1,20.1,0,0,1,0,14.133c-2.7,7.981-7.275,11.744-10.5,19.527-1.649,3.98-1.519,8.438-1.436,12.745s.052,8.8-1.864,12.656-6.3,6.84-10.464,5.722a15.336,15.336,0,0,0,18.323,3.488c5.471-2.917,8.532-8.842,11.151-14.462,12.682-27.212,19.389-29.509,19.041-59.529-.022-1.932-.384-32-.384-32a29.676,29.676,0,0,1-7.486-3.155c-14.165-9.776-14.681-27.2-14.568-40.7" transform="translate(-583.268 -744.267)" fill="#0f143d"/>
      </g>
      <g id="Group_3985" data-name="Group 3985" transform="translate(127.622 75.412)">
        <path id="Path_2353" data-name="Path 2353" d="M635.435,879.767V891.1s-8.715,44.446-11.329,69.138-3.057,31.206-3.057,31.206,6.252,9.753,19.325-6.8,15.4-19.173,20.624-19.463c0,0-6.39-69.428-6.1-72.042a10.517,10.517,0,0,1,2.324-4.939Z" transform="translate(-621.049 -819.68)" fill="#fbad8b"/>
        <g id="Group_3984" data-name="Group 3984" transform="translate(14.109)">
          <path id="Path_2354" data-name="Path 2354" d="M652.574,854.2s-14.234,18.882-15.4,21.5-1.743,4.067-1.743,4.067l21.787,8.424,21.206-23.239,7.843-20.625-2.324-24.4s-4.647-.291-5.519,3.776a30.83,30.83,0,0,0-.581,7.843l-6.509-5.229-10.485-3.2s-2.469,4.067,1.6,6.1,5.229,2.034,5.229,2.034l3.658,6.391-1.6,7.16-7.415-6.953a4.249,4.249,0,0,0-5.406-.337L652.127,841l-4.491-2.006-8.715,7.658-3.486,3.2s2.324,4.358,6.972,2.324l4.648-2.033Z" transform="translate(-635.158 -819.68)" fill="#fbad8b"/>
          <g id="Group_3981" data-name="Group 3981">
            <path id="Path_2355" data-name="Path 2355" d="M635.435,883.591a5.648,5.648,0,0,1-.005-.6c.013-.4.048-1,.143-1.773a21.115,21.115,0,0,1,.545-2.847,12.727,12.727,0,0,1,1.528-3.659c3.256-5,8.387-11.964,14.782-20.612l.038.256-5.528-4.056.2.022-2.873,1.263a19.268,19.268,0,0,1-3.061,1.193,4.975,4.975,0,0,1-3.4-.386,6.282,6.282,0,0,1-2.556-2.438l-.085-.141.13-.122c3.747-3.517,7.912-7.075,12.191-10.871l.129-.114.149.088,3.868,2.285-.255.006,4.527-2.98c.782-.5,1.5-1.014,2.349-1.517a2.82,2.82,0,0,1,2.912.255l8.819,7.449-.416.14,1.525-6.838.028.185-3.66-6.39.226.131a7.775,7.775,0,0,1-1.8-.487c-.575-.211-1.143-.451-1.711-.705s-1.131-.525-1.7-.8c-.283-.14-.567-.324-.85-.486a5.169,5.169,0,0,1-.753-.659,3.7,3.7,0,0,1-1.007-2.67,5.884,5.884,0,0,1,.773-2.719l.1-.175.2.061,10.484,3.2.048.014.039.031,6.507,5.232-.414.218a30.9,30.9,0,0,1,.554-7.734,4.689,4.689,0,0,1,2.119-3.217,6.728,6.728,0,0,1,3.7-.933l.208,0,.021.218c.817,8.675,1.586,16.847,2.3,24.4l0,.051-.018.048c-2.907,7.6-5.543,14.5-7.88,20.611l-.012.032-.023.025L662.095,883l-4.467,4.825-1.167,1.242c-.265.278-.41.411-.41.411s.119-.157.372-.446l1.13-1.276,4.4-4.888,16.346-18.034-.035.057c2.316-6.122,4.927-13.025,7.806-20.639l-.013.1c-.728-7.555-1.515-15.726-2.35-24.4l.229.222a6.254,6.254,0,0,0-3.4.863,4.179,4.179,0,0,0-1.893,2.9,30.488,30.488,0,0,0-.537,7.594l.031.574-.445-.356-6.51-5.226.086.045-10.485-3.193.3-.114a5.383,5.383,0,0,0-.7,2.458,3.175,3.175,0,0,0,.869,2.307,4.606,4.606,0,0,0,.667.584c.264.148.507.31.786.448.559.276,1.117.547,1.677.8a14.544,14.544,0,0,0,3.3,1.147l.165.025.06.106,3.657,6.391.05.087-.022.1c-.526,2.353-1.047,4.684-1.529,6.836l-.092.413-.323-.273-8.784-7.438a2.321,2.321,0,0,0-2.4-.212c-.746.441-1.539,1-2.3,1.484l-4.532,2.972-.126.082-.13-.076-3.864-2.293.277-.026c-4.284,3.786-8.457,7.335-12.209,10.836l.045-.263a5.865,5.865,0,0,0,2.362,2.262,4.547,4.547,0,0,0,3.121.361,19.161,19.161,0,0,0,2.987-1.157l2.878-1.253.1-.046.091.068,5.511,4.078.148.109-.11.147c-6.429,8.615-11.609,15.549-14.9,20.5a12.65,12.65,0,0,0-1.55,3.592,22.192,22.192,0,0,0-.59,2.821c-.112.771-.163,1.364-.194,1.762S635.435,883.591,635.435,883.591Z" transform="translate(-635.158 -819.68)" fill="#e8845a"/>
          </g>
          <g id="Group_3982" data-name="Group 3982" transform="translate(11.984 19.196)">
            <path id="Path_2356" data-name="Path 2356" d="M662.4,858.576c-.1-.016.281-1.541.44-4.016a9.073,9.073,0,0,0-.687-4.2,11.067,11.067,0,0,0-3.47-3.9,86.359,86.359,0,0,0-8.064-5.492l-2.553-1.5a4.528,4.528,0,0,1-.919-.591,4.315,4.315,0,0,1,1.013.411c.636.3,1.544.757,2.644,1.364a66.246,66.246,0,0,1,8.2,5.4,11.209,11.209,0,0,1,3.587,4.11,9.1,9.1,0,0,1,.618,4.418,19.82,19.82,0,0,1-.492,2.946A4.228,4.228,0,0,1,662.4,858.576Z" transform="translate(-647.142 -838.876)" fill="#e8845a"/>
          </g>
          <g id="Group_3983" data-name="Group 3983" transform="translate(42.317 12.001)">
            <path id="Path_2357" data-name="Path 2357" d="M677.642,849.512a20.036,20.036,0,0,1,.37-2.613,39.893,39.893,0,0,0-.107-12.611,19.964,19.964,0,0,1-.414-2.607,10.029,10.029,0,0,1,.775,2.537,31.049,31.049,0,0,1,.108,12.745A9.968,9.968,0,0,1,677.642,849.512Z" transform="translate(-677.475 -831.681)" fill="#e8845a"/>
          </g>
        </g>
      </g>
    </g>
    <g id="Group_4004" data-name="Group 4004" transform="translate(413.925 753.727)">
      <g id="Group_3990" data-name="Group 3990">
        <g id="Group_3989" data-name="Group 3989">
          <g id="Group_3988" data-name="Group 3988">
            <path id="Path_2358" data-name="Path 2358" d="M559.018,847.166l-10.424-18.371A49.224,49.224,0,1,0,536.8,841.909l-.017.022Z" transform="translate(-457.381 -753.727)" fill="#fff"/>
            <g id="Group_3987" data-name="Group 3987">
              <path id="Path_2359" data-name="Path 2359" d="M559.018,847.166l-22.259-5.108-.2-.045.122-.161.017-.021.182.181a50.309,50.309,0,0,1-10.1,6.087,49.287,49.287,0,0,1-13.472,3.843,44.244,44.244,0,0,1-7.778.392c-1.338-.077-2.7-.109-4.073-.225l-4.151-.628a49.571,49.571,0,0,1-30.692-19.708,48.984,48.984,0,0,1-8.3-18.975,50.082,50.082,0,0,1,.581-21.849,48.456,48.456,0,0,1,10.527-20.2l2.006-2.207c.659-.742,1.446-1.354,2.16-2.035.748-.644,1.423-1.373,2.227-1.942l2.357-1.762a20.728,20.728,0,0,1,2.44-1.615l2.492-1.513,2.608-1.267a22.973,22.973,0,0,1,2.634-1.17,50.1,50.1,0,0,1,22.015-3.384,48.452,48.452,0,0,1,20.208,5.97,49.841,49.841,0,0,1,23.319,28.687,53.091,53.091,0,0,1,2.138,15.977,48.84,48.84,0,0,1-2.4,13.8,49.86,49.86,0,0,1-4.923,10.575l0-.127,10.315,18.432c-.444-.773-3.778-6.569-10.532-18.309l-.037-.063.039-.064a49.883,49.883,0,0,0,4.844-10.539,48.734,48.734,0,0,0,2.334-13.711,52.843,52.843,0,0,0-2.167-15.847,49.458,49.458,0,0,0-23.161-28.388,48,48,0,0,0-20.013-5.889,49.656,49.656,0,0,0-21.787,3.362,22.646,22.646,0,0,0-2.6,1.16l-2.581,1.254-2.465,1.5a20.411,20.411,0,0,0-2.414,1.6l-2.332,1.744c-.8.563-1.463,1.285-2.2,1.922-.707.674-1.486,1.279-2.138,2.014l-1.984,2.184a47.986,47.986,0,0,0-10.421,19.983,49.627,49.627,0,0,0-.589,21.624,48.539,48.539,0,0,0,8.2,18.794,49.185,49.185,0,0,0,30.38,19.585l4.115.633c1.362.118,2.713.154,4.041.233a43.83,43.83,0,0,0,7.72-.365,49.081,49.081,0,0,0,13.391-3.768,50.3,50.3,0,0,0,10.075-6l.786-.6-.6.782-.017.022-.073-.205Z" transform="translate(-457.381 -753.727)" fill="#1c262a"/>
            </g>
          </g>
        </g>
      </g>
      <g id="Group_4003" data-name="Group 4003" transform="translate(30.723 45.344)">
        <g id="Group_3994" data-name="Group 3994" transform="translate(0 0.001)">
          <g id="Group_3993" data-name="Group 3993">
            <g id="Group_3992" data-name="Group 3992">
              <g id="Group_3991" data-name="Group 3991">
                <path id="Path_2360" data-name="Path 2360" d="M496.083,803.061a3.99,3.99,0,1,1-3.989-3.989A3.989,3.989,0,0,1,496.083,803.061Z" transform="translate(-488.104 -799.072)" fill="#1c262a"/>
              </g>
            </g>
          </g>
        </g>
        <g id="Group_3998" data-name="Group 3998" transform="translate(15.966 0.001)">
          <g id="Group_3997" data-name="Group 3997">
            <g id="Group_3996" data-name="Group 3996">
              <g id="Group_3995" data-name="Group 3995">
                <path id="Path_2361" data-name="Path 2361" d="M512.049,803.061a3.99,3.99,0,1,1-3.989-3.989A3.989,3.989,0,0,1,512.049,803.061Z" transform="translate(-504.07 -799.072)" fill="#1c262a"/>
              </g>
            </g>
          </g>
        </g>
        <g id="Group_4002" data-name="Group 4002" transform="translate(32.425)">
          <g id="Group_4001" data-name="Group 4001">
            <g id="Group_4000" data-name="Group 4000">
              <g id="Group_3999" data-name="Group 3999">
                <path id="Path_2362" data-name="Path 2362" d="M527.974,801.067a3.989,3.989,0,1,1-5.45-1.461A3.99,3.99,0,0,1,527.974,801.067Z" transform="translate(-520.529 -799.071)" fill="#1c262a"/>
              </g>
            </g>
          </g>
        </g>
      </g>
    </g>
    <g id="Group_4005" data-name="Group 4005" transform="translate(323.088 1044.566)">
      <path id="Path_2363" data-name="Path 2363" d="M670.258,1044.826c0,.144-77.723.261-173.577.261-95.887,0-173.593-.117-173.593-.261s77.707-.26,173.593-.26C592.535,1044.566,670.258,1044.683,670.258,1044.826Z" transform="translate(-323.088 -1044.566)" fill="#1c262a"/>
    </g>
    <g id="Group_4009" data-name="Group 4009" transform="translate(565.816 1032.794)">
      <g id="Group_4006" data-name="Group 4006" transform="translate(0 0.182)">
        <path id="Path_2364" data-name="Path 2364" d="M648.687,1045.07a26.838,26.838,0,0,1,21.388-12.079c14.607-.5,21.91,12.079,21.91,12.079Z" transform="translate(-648.687 -1032.977)" fill="#344952"/>
      </g>
      <g id="Group_4008" data-name="Group 4008" transform="translate(19.904)">
        <g id="Group_4007" data-name="Group 4007">
          <path id="Path_2365" data-name="Path 2365" d="M676.678,1044.708a18.649,18.649,0,0,1-.428-2.18,14.024,14.024,0,0,0-5.789-8.522,19.067,19.067,0,0,1-1.869-1.2,5.068,5.068,0,0,1,2.108.818,12.407,12.407,0,0,1,5.994,8.822A5.072,5.072,0,0,1,676.678,1044.708Z" transform="translate(-668.591 -1032.794)" fill="#1c262a"/>
        </g>
      </g>
    </g>
    <g id="Group_4010" data-name="Group 4010" transform="translate(442.78 1038.932)">
      <path id="Path_2366" data-name="Path 2366" d="M639.645,1044.54v-.092a5.609,5.609,0,0,0-5.608-5.516H509.692a5.608,5.608,0,0,0-5.608,5.608H639.645Z" transform="translate(-504.084 -1038.932)" fill="#344952"/>
    </g>
    <g id="Group_4013" data-name="Group 4013" transform="translate(296.319 886.249)">
      <g id="Group_4011" data-name="Group 4011">
        <path id="Path_2367" data-name="Path 2367" d="M296.319,886.333l53.993,157.782H594.8l-1.8-8.126-98.862-3.057L448.593,886.249Z" transform="translate(-296.319 -886.249)" fill="#d9d9d8"/>
      </g>
      <g id="Group_4012" data-name="Group 4012" transform="translate(89.665 64.671)">
        <path id="Path_2368" data-name="Path 2368" d="M404.659,960.443c1.614,6.465-1.156,12.8-6.185,14.143s-10.416-2.8-12.03-9.27,1.155-12.8,6.185-14.143S403.045,953.978,404.659,960.443Z" transform="translate(-385.984 -950.92)" fill="#fff"/>
      </g>
    </g>
    <g id="Group_4017" data-name="Group 4017" transform="translate(447.198 880.312)">
      <g id="Group_4016" data-name="Group 4016">
        <rect id="Rectangle_1609" data-name="Rectangle 1609" width="63.968" height="49.803" rx="11.057" fill="#4eb285"/>
        <g id="Group_4015" data-name="Group 4015" transform="translate(14.885 6.16)">
          <g id="Group_4014" data-name="Group 4014">
            <path id="Path_2369" data-name="Path 2369" d="M545.608,906.429v-5.717l-5.166.463a12.138,12.138,0,0,0-1.977-4.4l4.156-3.269-4.042-4.043-3.451,4.129a12.145,12.145,0,0,0-4.4-1.743l.642-5.373h-5.717l.483,5.4a12.18,12.18,0,0,0-4.38,1.8l-3.314-4.212L514.4,893.5l4.063,3.394a12.157,12.157,0,0,0-1.922,4.428l-5.127-.612v5.717l5.049-.452a12.152,12.152,0,0,0,1.817,4.611l-3.88,3.052,4.043,4.043,3.12-3.733a12.171,12.171,0,0,0,4.66,1.948l-.569,4.772h5.717l-.429-4.794a12.174,12.174,0,0,0,4.635-2.012l3.005,3.819,4.042-4.043-3.8-3.178a12.131,12.131,0,0,0,1.763-4.633Zm-17.1,3.263a5.815,5.815,0,1,1,5.815-5.815A5.816,5.816,0,0,1,528.509,909.692Z" transform="translate(-511.411 -886.472)" fill="#fff"/>
          </g>
        </g>
      </g>
    </g>
    <g id="Group_4019" data-name="Group 4019" transform="translate(630.602 777.966)">
      <rect id="Rectangle_1610" data-name="Rectangle 1610" width="56.717" height="40.445" rx="11.057" fill="#de2d41"/>
      <g id="Group_4018" data-name="Group 4018" transform="translate(12.522 12.498)">
        <path id="Path_2370" data-name="Path 2370" d="M750.043,799.042l10.153-5.23v1.51l-8.556,4.289v.044l8.556,4.288v1.51l-10.153-5.229Z" transform="translate(-750.043 -790.464)" fill="#fff"/>
        <path id="Path_2371" data-name="Path 2371" d="M761.614,806.328l6.1-15.864h1.488l-6.127,15.864Z" transform="translate(-750.043 -790.464)" fill="#fff"/>
        <path id="Path_2372" data-name="Path 2372" d="M780.736,800.246l-10.153,5.207v-1.51l8.621-4.288v-.044l-8.621-4.289v-1.51l10.153,5.208Z" transform="translate(-750.043 -790.464)" fill="#fff"/>
      </g>
    </g>
  </g>
</svg>
